<svg viewBox="0 0 330 200" xmlns="http://www.w3.org/2000/svg"><g><g><g><g><g><line x1="58" y1="178" x2="53" y2="178" style="visibility: inherit;" fill="rgb(0, 0, 0)" stroke="rgb(204, 204, 204)" stroke-width="1px"></line><line x1="58" y1="164.30769230769232" x2="53" y2="164.30769230769232" style="visibility: inherit;" fill="rgb(0, 0, 0)" stroke="rgb(204, 204, 204)" stroke-width="1px"></line><line x1="58" y1="150.6153846153846" x2="53" y2="150.6153846153846" style="visibility: inherit;" fill="rgb(0, 0, 0)" stroke="rgb(204, 204, 204)" stroke-width="1px"></line><line x1="58" y1="136.9230769230769" x2="53" y2="136.9230769230769" style="visibility: inherit;" fill="rgb(0, 0, 0)" stroke="rgb(204, 204, 204)" stroke-width="1px"></line><line x1="58" y1="123.23076923076923" x2="53" y2="123.23076923076923" style="visibility: inherit;" fill="rgb(0, 0, 0)" stroke="rgb(204, 204, 204)" stroke-width="1px"></line><line x1="58" y1="109.53846153846155" x2="53" y2="109.53846153846155" style="visibility: inherit;" fill="rgb(0, 0, 0)" stroke="rgb(204, 204, 204)" stroke-width="1px"></line><line x1="58" y1="95.84615384615385" x2="53" y2="95.84615384615385" style="visibility: inherit;" fill="rgb(0, 0, 0)" stroke="rgb(204, 204, 204)" stroke-width="1px"></line><line x1="58" y1="82.15384615384616" x2="53" y2="82.15384615384616" style="visibility: inherit;" fill="rgb(0, 0, 0)" stroke="rgb(204, 204, 204)" stroke-width="1px"></line><line x1="58" y1="68.46153846153848" x2="53" y2="68.46153846153848" style="visibility: inherit;" fill="rgb(0, 0, 0)" stroke="rgb(204, 204, 204)" stroke-width="1px"></line><line x1="58" y1="54.769230769230774" x2="53" y2="54.769230769230774" style="visibility: inherit;" fill="rgb(0, 0, 0)" stroke="rgb(204, 204, 204)" stroke-width="1px"></line><line x1="58" y1="41.076923076923094" x2="53" y2="41.076923076923094" style="visibility: inherit;" fill="rgb(0, 0, 0)" stroke="rgb(204, 204, 204)" stroke-width="1px"></line><line x1="58" y1="27.384615384615387" x2="53" y2="27.384615384615387" style="visibility: inherit;" fill="rgb(0, 0, 0)" stroke="rgb(204, 204, 204)" stroke-width="1px"></line><line x1="58" y1="13.69230769230768" x2="53" y2="13.69230769230768" style="visibility: inherit;" fill="rgb(0, 0, 0)" stroke="rgb(204, 204, 204)" stroke-width="1px"></line><line x1="58" y1="0" x2="53" y2="0" style="visibility: inherit;" fill="rgb(0, 0, 0)" stroke="rgb(204, 204, 204)" stroke-width="1px"></line></g><g transform="translate(48, 0)"><text x="0" y="178" dx="0em" dy="0.3em" style="text-anchor: end; visibility: hidden; font-family: &quot;Helvetica Neue&quot;, sans-serif; font-size: 12px; font-weight: 200;" fill="rgb(50, 49, 63)" stroke="none" stroke-width="1px">-0.1</text><text x="0" y="164.30769230769232" dx="0em" dy="0.3em" style="text-anchor: end; visibility: inherit; font-family: &quot;Helvetica Neue&quot;, sans-serif; font-size: 12px; font-weight: 200;" fill="rgb(50, 49, 63)" stroke="none" stroke-width="1px">0</text><text x="0" y="150.6153846153846" dx="0em" dy="0.3em" style="text-anchor: end; visibility: hidden; font-family: &quot;Helvetica Neue&quot;, sans-serif; font-size: 12px; font-weight: 200;" fill="rgb(50, 49, 63)" stroke="none" stroke-width="1px">0.1</text><text x="0" y="136.9230769230769" dx="0em" dy="0.3em" style="text-anchor: end; visibility: inherit; font-family: &quot;Helvetica Neue&quot;, sans-serif; font-size: 12px; font-weight: 200;" fill="rgb(50, 49, 63)" stroke="none" stroke-width="1px">0.2</text><text x="0" y="123.23076923076923" dx="0em" dy="0.3em" style="text-anchor: end; visibility: hidden; font-family: &quot;Helvetica Neue&quot;, sans-serif; font-size: 12px; font-weight: 200;" fill="rgb(50, 49, 63)" stroke="none" stroke-width="1px">0.3</text><text x="0" y="109.53846153846155" dx="0em" dy="0.3em" style="text-anchor: end; visibility: inherit; font-family: &quot;Helvetica Neue&quot;, sans-serif; font-size: 12px; font-weight: 200;" fill="rgb(50, 49, 63)" stroke="none" stroke-width="1px">0.4</text><text x="0" y="95.84615384615385" dx="0em" dy="0.3em" style="text-anchor: end; visibility: hidden; font-family: &quot;Helvetica Neue&quot;, sans-serif; font-size: 12px; font-weight: 200;" fill="rgb(50, 49, 63)" stroke="none" stroke-width="1px">0.5</text><text x="0" y="82.15384615384616" dx="0em" dy="0.3em" style="text-anchor: end; visibility: inherit; font-family: &quot;Helvetica Neue&quot;, sans-serif; font-size: 12px; font-weight: 200;" fill="rgb(50, 49, 63)" stroke="none" stroke-width="1px">0.6</text><text x="0" y="68.46153846153848" dx="0em" dy="0.3em" style="text-anchor: end; visibility: hidden; font-family: &quot;Helvetica Neue&quot;, sans-serif; font-size: 12px; font-weight: 200;" fill="rgb(50, 49, 63)" stroke="none" stroke-width="1px">0.7</text><text x="0" y="54.769230769230774" dx="0em" dy="0.3em" style="text-anchor: end; visibility: inherit; font-family: &quot;Helvetica Neue&quot;, sans-serif; font-size: 12px; font-weight: 200;" fill="rgb(50, 49, 63)" stroke="none" stroke-width="1px">0.8</text><text x="0" y="41.076923076923094" dx="0em" dy="0.3em" style="text-anchor: end; visibility: hidden; font-family: &quot;Helvetica Neue&quot;, sans-serif; font-size: 12px; font-weight: 200;" fill="rgb(50, 49, 63)" stroke="none" stroke-width="1px">0.9</text><text x="0" y="27.384615384615387" dx="0em" dy="0.3em" style="text-anchor: end; visibility: inherit; font-family: &quot;Helvetica Neue&quot;, sans-serif; font-size: 12px; font-weight: 200;" fill="rgb(50, 49, 63)" stroke="none" stroke-width="1px">1</text><text x="0" y="13.69230769230768" dx="0em" dy="0.3em" style="text-anchor: end; visibility: hidden; font-family: &quot;Helvetica Neue&quot;, sans-serif; font-size: 12px; font-weight: 200;" fill="rgb(50, 49, 63)" stroke="none" stroke-width="1px">1.1</text><text x="0" y="0" dx="0em" dy="0.3em" style="text-anchor: end; visibility: hidden; font-family: &quot;Helvetica Neue&quot;, sans-serif; font-size: 12px; font-weight: 200;" fill="rgb(50, 49, 63)" stroke="none" stroke-width="1px">1.2</text></g><line x1="58" y1="0" x2="58" y2="178" fill="rgb(0, 0, 0)" stroke="rgb(204, 204, 204)" stroke-width="1px"></line></g></g><g transform="translate(58, 0)" clip-path="url(#clip_0)"><clipPath id="clip_0"><rect width="272" height="178"></rect></clipPath><g><g><g><line x1="0" y1="0" x2="0" y2="178" fill="rgb(0, 0, 0)" stroke="rgb(60, 60, 60)" stroke-width="1px" opacity="0.25"></line><line x1="22.666666666666664" y1="0" x2="22.666666666666664" y2="178" fill="rgb(0, 0, 0)" stroke="rgb(60, 60, 60)" stroke-width="1px" opacity="0.25"></line><line x1="45.33333333333333" y1="0" x2="45.33333333333333" y2="178" fill="rgb(0, 0, 0)" stroke="rgb(60, 60, 60)" stroke-width="1px" opacity="0.25"></line><line x1="68" y1="0" x2="68" y2="178" fill="rgb(0, 0, 0)" stroke="rgb(60, 60, 60)" stroke-width="1px" opacity="0.25"></line><line x1="90.66666666666666" y1="0" x2="90.66666666666666" y2="178" fill="rgb(0, 0, 0)" stroke="rgb(60, 60, 60)" stroke-width="1px" opacity="0.25"></line><line x1="113.33333333333334" y1="0" x2="113.33333333333334" y2="178" fill="rgb(0, 0, 0)" stroke="rgb(60, 60, 60)" stroke-width="1px" opacity="0.25"></line><line x1="136" y1="0" x2="136" y2="178" fill="rgb(0, 0, 0)" stroke="rgb(60, 60, 60)" stroke-width="1px" opacity="0.25"></line><line x1="158.66666666666669" y1="0" x2="158.66666666666669" y2="178" fill="rgb(0, 0, 0)" stroke="rgb(60, 60, 60)" stroke-width="1px" opacity="0.25"></line><line x1="181.33333333333331" y1="0" x2="181.33333333333331" y2="178" fill="rgb(0, 0, 0)" stroke="rgb(60, 60, 60)" stroke-width="1px" opacity="0.25"></line><line x1="204" y1="0" x2="204" y2="178" fill="rgb(0, 0, 0)" stroke="rgb(60, 60, 60)" stroke-width="1px" opacity="0.25"></line><line x1="226.66666666666669" y1="0" x2="226.66666666666669" y2="178" fill="rgb(0, 0, 0)" stroke="rgb(60, 60, 60)" stroke-width="1px" opacity="0.25"></line><line x1="249.33333333333331" y1="0" x2="249.33333333333331" y2="178" fill="rgb(0, 0, 0)" stroke="rgb(60, 60, 60)" stroke-width="1px" opacity="0.25"></line><line x1="272" y1="0" x2="272" y2="178" fill="rgb(0, 0, 0)" stroke="rgb(60, 60, 60)" stroke-width="1px" opacity="0.25"></line></g><g><line x1="0" y1="178" x2="272" y2="178" fill="rgb(0, 0, 0)" stroke="rgb(60, 60, 60)" stroke-width="1px" opacity="0.25"></line><line x1="0" y1="164.30769230769232" x2="272" y2="164.30769230769232" fill="rgb(0, 0, 0)" stroke="rgb(60, 60, 60)" stroke-width="1px" opacity="0.25"></line><line x1="0" y1="150.6153846153846" x2="272" y2="150.6153846153846" fill="rgb(0, 0, 0)" stroke="rgb(60, 60, 60)" stroke-width="1px" opacity="0.25"></line><line x1="0" y1="136.9230769230769" x2="272" y2="136.9230769230769" fill="rgb(0, 0, 0)" stroke="rgb(60, 60, 60)" stroke-width="1px" opacity="0.25"></line><line x1="0" y1="123.23076923076923" x2="272" y2="123.23076923076923" fill="rgb(0, 0, 0)" stroke="rgb(60, 60, 60)" stroke-width="1px" opacity="0.25"></line><line x1="0" y1="109.53846153846155" x2="272" y2="109.53846153846155" fill="rgb(0, 0, 0)" stroke="rgb(60, 60, 60)" stroke-width="1px" opacity="0.25"></line><line x1="0" y1="95.84615384615385" x2="272" y2="95.84615384615385" fill="rgb(0, 0, 0)" stroke="rgb(60, 60, 60)" stroke-width="1px" opacity="0.25"></line><line x1="0" y1="82.15384615384616" x2="272" y2="82.15384615384616" fill="rgb(0, 0, 0)" stroke="rgb(60, 60, 60)" stroke-width="1px" opacity="0.25"></line><line x1="0" y1="68.46153846153848" x2="272" y2="68.46153846153848" fill="rgb(0, 0, 0)" stroke="rgb(60, 60, 60)" stroke-width="1px" opacity="0.25"></line><line x1="0" y1="54.769230769230774" x2="272" y2="54.769230769230774" fill="rgb(0, 0, 0)" stroke="rgb(60, 60, 60)" stroke-width="1px" opacity="0.25"></line><line x1="0" y1="41.076923076923094" x2="272" y2="41.076923076923094" fill="rgb(0, 0, 0)" stroke="rgb(60, 60, 60)" stroke-width="1px" opacity="0.25"></line><line x1="0" y1="27.384615384615387" x2="272" y2="27.384615384615387" fill="rgb(0, 0, 0)" stroke="rgb(60, 60, 60)" stroke-width="1px" opacity="0.25"></line><line x1="0" y1="13.69230769230768" x2="272" y2="13.69230769230768" fill="rgb(0, 0, 0)" stroke="rgb(60, 60, 60)" stroke-width="1px" opacity="0.25"></line><line x1="0" y1="0" x2="272" y2="0" fill="rgb(0, 0, 0)" stroke="rgb(60, 60, 60)" stroke-width="1px" opacity="0.25"></line></g></g></g><g><g><line x1="0" y1="164.30769230769232" x2="272" y2="164.30769230769232" fill="rgb(0, 0, 0)" stroke="rgb(153, 153, 153)" stroke-width="1.5px"></line></g></g><g><g><line x1="22.666666666666664" y1="0" x2="22.666666666666664" y2="178" fill="rgb(0, 0, 0)" stroke="rgb(153, 153, 153)" stroke-width="1.5px"></line></g></g><g><g><g><g><g><path stroke="rgb(0, 119, 187)" stroke-width="2px" d="M22.666666666666664,61.89408318813031L45.33333333333333,44.966053789255284L68,39.9140670180704L90.66666666666666,37.23816287640017L113.33333333333334,35.754083275557406L136,34.79692231054645L158.66666666666669,34.20145248306275L181.33333333333331,33.821940481503106L204,33.63569770675505L226.66666666666669,33.48664541951143L249.10666666666668,33.26536999412164" style="fill: none;" fill="none"></path></g><g><path stroke="rgb(255, 112, 67)" stroke-width="2px" d="M22.666666666666664,155.75L22.893333333333334,90.83703685694836L23.12,66.71226054502209L23.346666666666668,58.24456069358594L23.573333333333334,55.92131458251836L23.799999999999997,49.09328886252473L24.026666666666667,47.12886202709788L24.253333333333334,46.01533942309959L24.48,48.98176987235527L24.706666666666667,45.30343094813793L24.93333333333333,48.553145506086935L25.16,52.23015731343445L25.386666666666667,43.62571500185001L25.613333333333333,42.201880019469286L25.84,37.79550911862023L26.06666666666667,38.809604344965464L26.293333333333333,37.610953456082655L26.52,35.12475590291223L26.746666666666666,35.46650422550886L26.973333333333333,37.453987282042334L27.200000000000003,33.244941124723255L27.426666666666666,30.795308468295445L27.653333333333332,34.735327279072095L27.88,35.23984624268215L28.106666666666666,35.53347551845448L28.333333333333336,39.281485647739174L28.56,37.88570863469121L28.78666666666667,37.073366828165575L29.013333333333335,38.389142002108L29.24,39.1549230208073L29.46666666666667,41.38916531338691L29.69333333333333,35.53526326737577L29.92,32.12829239283943L30.14666666666667,30.14543538323329L30.37333333333333,30.77997031987502L30.6,29.3607119520467L30.826666666666664,32.111818976992225L31.053333333333335,37.29007865065253L31.28,36.726710389681756L31.506666666666664,38.187387755064464L31.733333333333334,37.24894428861626L31.959999999999997,42.068443268927666L32.18666666666667,37.71916090525389L32.413333333333334,38.764993954597514L32.64,41.16222648163901L32.86666666666667,38.980300427664986L33.093333333333334,35.92186177195063L33.32,39.50752355129393L33.54666666666667,34.44014793760695L33.77333333333333,33.279493022762125L34,36.181107246942844L34.22666666666667,37.86984672541405L34.45333333333333,33.487020024958696L34.68,30.936214885294646L34.906666666666666,34.81731937093426L35.13333333333334,35.28756448926842L35.36,37.34980484044661L35.586666666666666,34.97291334021679L35.81333333333333,37.16667787169851L36.04,36.65489113671313L36.266666666666666,41.72270433387479L36.49333333333333,37.51794084539202L36.72,36.859326187402786L36.946666666666665,38.264570148760754L37.17333333333333,37.293864441963336L37.400000000000006,34.94035602829959L37.626666666666665,33.57061413154727L37.85333333333333,36.35053973225283L38.080000000000005,36.17989873955574L38.306666666666665,36.08058568180604L38.53333333333333,37.811343174503406L38.76,38.8186440352533L38.98666666666667,41.19345082851743L39.21333333333333,38.99847299758173L39.44,43.086668976900285L39.66666666666667,40.10032595994056L39.89333333333333,38.36227432407L40.12,39.13928596430105L40.34666666666667,34.22583366199245L40.57333333333334,31.36620442204884L40.8,36.85613097363242L41.02666666666667,36.474152842038706L41.25333333333334,36.25184156945113L41.48,39.699571793420574L41.70666666666666,38.129035399155384L41.93333333333334,37.21498321769303L42.16,38.47156254038964L42.38666666666666,37.41433401389136L42.61333333333334,38.58758470377708L42.84,37.48185891298289L43.06666666666666,42.20399957966373L43.29333333333334,37.79805467844119L43.52,42.38802551516048L43.74666666666666,36.11660008059263L43.97333333333333,37.83230355459722L44.2,35.25372759185248L44.42666666666666,40.90722715076586L44.65333333333333,38.8318908171303L44.88,39.41260276326213L45.10666666666667,37.96201942360318L45.33333333333333,37.117779919921674L45.56,36.62643252877902L45.78666666666667,34.551910654826315L46.01333333333333,33.344538924185855L46.24,32.641848576953095L46.46666666666667,30.444325102555922L46.693333333333335,32.74248182507216L46.919999999999995,34.08000903757659L47.14666666666667,34.85844987525422L47.373333333333335,31.734387058167187L47.599999999999994,33.49329788323789L47.82666666666667,36.30554167573675L48.053333333333335,34.36515217835574L48.28,36.81296087549532L48.50666666666667,32.87191246030753L48.733333333333334,34.15533766728356L48.96,34.902291137743646L49.18666666666667,31.75990267293605L49.413333333333334,35.29670566334107L49.64,33.77800961914144L49.86666666666666,32.89412852141723L50.093333333333334,32.37970972254172L50.32,32.08031798159621L50.54666666666667,33.694629680673614L50.77333333333333,34.634159089536666L51,33.39240751318724L51.22666666666667,32.6697080957519L51.45333333333333,34.037654727112226L51.68,34.83379966656392L51.906666666666666,37.085713713632515L52.13333333333334,33.030654612103376L52.36,32.459167907321074L52.586666666666666,33.915120337445444L52.81333333333333,36.55104234408557L53.04,38.08514895195009L53.266666666666666,33.61232592080421L53.49333333333333,38.163373685908056L53.72,35.4464104082754L53.946666666666665,37.442253165308585L54.17333333333333,35.02671826528655L54.400000000000006,40.77510772270446L54.626666666666665,40.54355500230628L54.85333333333333,36.83167593441917L55.080000000000005,40.03703539383196L55.306666666666665,40.113996906902486L55.53333333333333,43.73590389212495L55.76,40.47818068060133L55.98666666666667,38.58218577149461L56.21333333333333,41.055832119009864L56.44,38.91837890864835L56.66666666666667,39.46293883252565L56.89333333333333,37.99131501591452L57.12,35.34627226233917L57.34666666666667,35.595415072066004L57.57333333333334,35.740416187327014L57.8,37.6133645287166L58.02666666666667,42.280535848020776L58.25333333333334,39.63115647893272L58.48,41.66633307073886L58.70666666666666,39.27369046255461L58.93333333333334,36.092614772283724L59.16,37.81834410516143L59.38666666666666,38.82271857689625L59.61333333333334,37.618706827138226L59.84,35.12941429647137L60.06666666666666,35.46920373593096L60.29333333333334,33.87840349738872L60.52,31.164000066249486L60.74666666666666,36.73844803855721L60.97333333333333,32.828545989209516L61.2,32.34154068879687L61.42666666666666,30.269545911649004L61.65333333333333,34.42931802827201L61.88,31.484632323223536L62.10666666666667,29.77082524288531L62.33333333333333,28.773389522128497L62.56,29.981439624955698L62.78666666666667,34.26164016941652L63.01333333333333,34.96415919398504L63.24,33.584467573976184L63.46666666666667,34.57004474343876L63.693333333333335,35.14365065606597L63.919999999999995,31.900373912599633L64.14666666666668,33.5899022325176L64.37333333333333,32.78465002240219L64.6,37.68166631303808L64.82666666666667,35.166056717265064L65.05333333333333,37.27908731714058L65.28,33.143198049345045L65.50666666666667,32.524668187795754L65.73333333333333,32.164683808374036L65.96,35.532288284165986L66.18666666666667,35.703676396769225L66.41333333333334,34.0148665859966L66.64,33.03197927612695L66.86666666666666,32.4599388617828L67.09333333333333,32.12701134063454L67.32,31.9332475233262L67.54666666666667,40.763265443191244L67.77333333333334,42.325220487937344L68,41.44572063167183L68.22666666666667,40.93385171532529L68.45333333333333,42.42450169831932L68.68,37.92638691149878L68.90666666666667,33.519926413261516L69.13333333333333,36.32103948021049L69.36,32.58561420825174L69.58666666666667,33.98871208458712L69.81333333333333,36.59387274092202L70.04,34.532960858293535L70.26666666666668,33.33351014260376L70.49333333333333,30.846872133764606L70.72,31.188206504927933L70.94666666666666,33.17542080125267L71.17333333333333,37.909094906329074L71.4,35.29842015856045L71.62666666666667,35.567565147666784L71.85333333333332,33.93564983901899L72.08,32.98587512938596L72.30666666666666,32.433106248379545L72.53333333333333,37.4770678365569L72.76,35.04698040395303L72.98666666666666,35.421227210485284L73.21333333333334,33.850481159579374L73.44,36.51342234256751L73.66666666666666,34.48613872645123L73.89333333333333,33.306259661871536L74.12,30.83101235397845L74.34666666666666,31.178976113092403L74.57333333333334,33.17004871320438L74.80000000000001,30.7517375818542L75.02666666666666,34.709953580331444L75.25333333333333,31.647962214522153L75.48,29.865883239621127L75.70666666666666,34.19438635315177L75.93333333333334,31.347902088303556L76.16000000000001,33.26836363077729L76.38666666666667,34.38607224849699L76.61333333333333,35.03657866400985L76.83999999999999,31.83805801322299L77.06666666666666,31.765076686772687L77.29333333333334,31.722601554778635L77.52,37.06355410488115L77.74666666666667,33.01775771981005L77.97333333333334,32.45166191600637L78.19999999999999,30.33363646588495L78.42666666666666,29.100945653914295L78.65333333333334,31.960634985962713L78.88,35.413531869522586L79.10666666666667,32.05744477883138L79.33333333333334,31.89275978435677L79.56,31.796913117572558L79.78666666666666,35.31824574211956L80.01333333333334,35.579103637298175L80.24,35.730922932292174L80.46666666666667,37.607839454286335L80.69333333333334,35.12308948547158L80.92,40.83119577285214L81.14666666666668,38.787640555184566L81.37333333333333,34.02117603388663L81.6,34.82420906710661L81.82666666666667,37.08013198474836L82.05333333333334,34.81596373820048L82.28,35.28677551101728L82.50666666666667,35.560787962796695L82.73333333333332,33.931705517424604L82.96,32.98357953421802L83.18666666666667,32.43177021199182L83.41333333333333,33.89917487876383L83.64,34.75320439482519L83.86666666666667,37.03880726548056L84.09333333333333,34.79191275158661L84.32,35.27277783680799L84.54666666666667,33.764083624099186L84.77333333333333,32.88602359230265L85,34.163550346104756L85.22666666666667,31.329955532202177L85.45333333333333,29.680803350510928L85.68,28.720996780766598L85.90666666666667,31.73950474179074L86.13333333333333,29.919160990491434L86.36,32.43683631185064L86.58666666666667,32.113565656573996L86.81333333333333,33.713979827510656L87.04,32.85686318268813L87.26666666666668,30.56946360309371L87.49333333333333,29.238197047769802L87.72,32.0405152971866L87.94666666666666,30.09434913373184L88.17333333333333,32.538795811216545L88.4,35.750021469820354L88.62666666666667,35.83039711082006L88.85333333333332,39.45429111849728L89.08,34.409166661734645L89.30666666666666,31.472904227898795L89.53333333333333,33.34111487602169L89.76,34.42841347322923L89.98666666666666,31.48410587218865L90.21333333333334,33.347634232998416L90.44,32.643650046681984L90.66666666666666,30.445373557938154L90.89333333333333,30.954534333796914L91.12,36.616538982269816L91.34666666666666,34.54615261075793L91.57333333333334,38.70686081946113L91.80000000000001,39.339835304618674L92.02666666666666,36.131111070364994L92.25333333333333,37.84074895064472L92.48,38.83575819696753L92.70666666666666,34.04918050140432L92.93333333333334,36.62906535950964L93.16000000000001,32.764885270003845L93.38666666666667,32.30449015021915L93.61333333333333,32.03654019050447L93.83999999999999,33.669151006258204L94.06666666666666,32.83077280871919L94.29333333333334,32.342836697751494L94.52,30.270300188860602L94.74666666666667,32.64119932530147L94.97333333333334,30.443947238094694L95.19999999999999,30.95370421564803L95.42666666666666,31.250382776584075L95.65333333333334,35.00016508366423L95.88,38.97109607869257L96.10666666666667,34.127947148568296L96.33333333333334,33.09779216354369L96.56,36.07535734687474L96.78666666666666,36.019742591265725L97.01333333333334,32.41025941888586L97.24,30.30954021256082L97.46666666666667,36.2411524037104L97.69333333333334,36.11623531434407L97.92,34.254975876025185L98.14666666666668,34.96028057523128L98.37333333333333,40.736440987092294L98.6,36.943935577564645L98.82666666666667,34.73669742921956L99.05333333333334,37.02920021149808L99.28,34.78632144616881L99.50666666666667,33.48096600474716L99.73333333333332,34.509806830147454L99.96,35.1085921905304L100.18666666666667,33.66852757796565L100.41333333333333,31.041852281145225L100.64,31.301684950703475L100.86666666666667,29.664349872078645L101.09333333333333,34.07709393324208L101.32,31.27963789991611L101.54666666666667,29.651518488520395L101.77333333333333,28.70395299108813L102,29.941027563890202L102.22666666666667,32.44956265756872L102.45333333333333,32.12097238978191L102.68,31.929732853930005L102.90666666666667,31.818431444064174L103.13333333333333,35.330769408137655L103.36,32.00927702630534L103.58666666666667,31.864726152386623L103.81333333333333,31.780597543765936L104.04,29.943077001240994L104.26666666666668,34.239313122414586L104.49333333333333,36.739722544937564L104.72,36.4064031365383L104.94666666666666,32.635295856234535L105.17333333333333,32.22906911140544L105.4,31.992645145914878L105.62666666666667,31.855046397999388L105.85333333333332,29.986406234404882L106.08,32.47597304380824L106.30666666666666,30.347785542265626L106.53333333333333,32.6862958009832L106.76,34.04730877155686L106.98666666666666,36.6279760127384L107.21333333333334,38.12992434710603L107.44,33.63838520078497L107.66666666666666,36.389982494549145L107.89333333333333,36.2028544272122L108.12,34.30538819971443L108.34666666666666,34.989620547618415L108.57333333333334,35.38784377409851L108.80000000000001,35.61960969190997L109.02666666666666,32.17738207146084L109.25333333333333,30.17400559635945L109.48,30.7965981801581L109.70666666666666,32.94750475623664L109.93333333333334,34.19933238351433L110.16000000000001,31.35078067797457L110.38666666666667,35.05859666227349L110.61333333333333,33.639430180520094L110.83999999999999,36.390590672754996L111.06666666666666,32.626093002312615L111.29333333333334,32.223713050422845L111.52,33.77808561073073L111.74666666666667,32.89417274852224L111.97333333333334,34.168293155024514L112.19999999999999,38.48694661622429L112.42666666666666,37.423287546027154L112.65333333333334,33.227122582557L112.88,34.362069958432784L113.10666666666667,33.23405163888481L113.33333333333334,32.57754497690789L113.56,32.19545809963731L113.78666666666666,30.184525844758127L114.01333333333334,32.591278657033854L114.24,33.992008793778325L114.46666666666667,33.0186760410559L114.69333333333334,34.24075407127913L114.92,34.95200348486907L115.14666666666668,31.78883525896302L115.37333333333333,33.524986736101084L115.6,32.74686920348776L115.82666666666667,34.082562491814485L116.05333333333334,34.85993598562064L116.28,35.31236735901584L116.50666666666667,39.15279780294722L116.73333333333332,37.810812936699904L116.96,42.39545082146705L117.18666666666667,39.69803699347844L117.41333333333333,41.70525753020448L117.64,39.29634449796362L117.86666666666667,39.682914805507124L118.09333333333333,34.542225647574384L118.32,33.3389022499652L118.54666666666667,32.63856803255666L118.77333333333333,32.23097351802491L119,30.20519581825974L119.22666666666667,34.39186627391945L119.45333333333333,35.03995078680575L119.68,35.417135973305534L119.90666666666667,35.636657751848446L120.13333333333333,35.764419426960416L120.36,32.26166133726019L120.58666666666667,32.011613821362346L120.81333333333333,35.44320155172517L121.04,32.07471253387328L121.26666666666668,35.47992500240656L121.49333333333333,39.25031635140061L121.72,39.65612642420746L121.94666666666666,36.31519250196567L122.17333333333333,34.37076895922095L122.4,33.239114457343504L122.62666666666667,34.36904922955853L122.85333333333332,33.23811357467997L123.08,34.36846671584834L123.30666666666666,31.449216859392948L123.53333333333333,31.53877113524362L123.76,29.802334031480996L123.98666666666666,28.791727637091185L124.21333333333334,29.99211240786397L124.44,30.690736344453768L124.66666666666666,32.88589316785672L124.89333333333333,32.37491674676954L125.12,32.07752846969677L125.34666666666666,33.69300618474813L125.57333333333334,31.056098830292655L125.80000000000001,31.30997644230723L126.02666666666666,31.457733212499733L126.25333333333333,31.543727652751755L126.48,33.38233410928612L126.70666666666666,32.66384537468144L126.93333333333334,30.457127238833834L127.16000000000001,34.5384903606936L127.38666666666667,31.5481706206929L127.61333333333333,31.59636222432019L127.83999999999999,29.835852045323577L128.06666666666666,30.599792813455252L128.29333333333335,32.83296403281554L128.51999999999998,32.34411199017558L128.74666666666667,32.05960010135911L128.97333333333333,31.894014182067934L129.2,33.58620086934815L129.42666666666668,30.993938136729838L129.65333333333334,29.485241226346034L129.88,35.76141039373337L130.10666666666665,32.259910079922065L130.33333333333334,30.222036897283857L130.56,32.61311008960382L130.78666666666666,32.216156995226356L131.01333333333335,30.196572601990965L131.24,29.021174485127972L131.46666666666667,37.27988124265215L131.69333333333333,36.72077549860816L131.92,34.60681826326686L132.14666666666668,35.165052844605924L132.37333333333333,35.489945370945264L132.6,35.679032821274774L132.82666666666668,34.00052402505884L133.05333333333334,33.02363190566115L133.28,34.2436383844794L133.50666666666666,33.16512446284392L133.73333333333332,36.11454474506746L133.96,36.042549657013865L134.18666666666667,32.423533131151316L134.41333333333333,32.10582320540698L134.64,37.28658910554688L134.86666666666667,33.147564090197505L135.09333333333333,34.31576691587958L135.32,33.20710326811883L135.54666666666668,30.77330333281438L135.77333333333334,32.93394715508259L136,30.614326475027298L136.22666666666666,32.84142262385049L136.45333333333335,32.349034890157924L136.67999999999998,33.85102292145652L136.90666666666667,34.72517995567233L137.13333333333333,33.44538165727823L137.36,32.700539047612835L137.58666666666667,34.055598341095276L137.81333333333333,31.267127465286677L138.04,29.644237415566067L138.26666666666665,35.85394617585948L138.49333333333334,34.10232359742713L138.72,33.08287925677948L138.9466666666667,34.27812034283028L139.17333333333335,31.396635270296457L139.39999999999998,29.719610958081745L139.62666666666667,28.74358280837282L139.85333333333332,31.752649809857587L140.08,31.715369112414038L140.30666666666667,33.48222943880958L140.53333333333336,34.510542148771776L140.76,31.53190476135441L140.98666666666665,29.798337801877494L141.21333333333334,30.577959523769636L141.44,32.820257058218544L141.66666666666669,35.913831915575486L141.89333333333332,34.137177097941844L142.12,31.31460630177139L142.34666666666666,29.671870098400177L142.57333333333332,30.50435532034581L142.8,30.988861719518184L143.02666666666667,29.482286751528846L143.25333333333333,28.605460120159023L143.48,31.672262405317156L143.70666666666665,29.88002595066382L143.93333333333334,35.99117510328634L144.16,37.759306217804976L144.38666666666668,36.999800834147095L144.61333333333332,32.980653316242865L144.84,34.21862484543797L145.06666666666666,36.7276819677372L145.29333333333335,32.822280135992315L145.52,30.54933626991675L145.74666666666667,34.59215601678383L145.97333333333333,31.57940403253744L146.2,31.614540070013703L146.42666666666668,29.846431551517213L146.65333333333334,28.817392393752243L146.88,31.7956069885484L147.10666666666668,35.31748557502746L147.33333333333331,35.57866122005058L147.56,33.94210775314639L147.78666666666666,32.9896336354081L148.01333333333335,34.22385139119211L148.24,34.942166125058435L148.46666666666664,33.571667607860945L148.69333333333333,32.774037470851994L148.92,30.521259038805084L149.14666666666668,34.57581506827688L149.37333333333333,33.35845129281407L149.60000000000002,30.861387883187007L149.82666666666665,40.13944313263022L150.0533333333333,34.807925133960026L150.28,35.28209704334935L150.50666666666666,33.76950740230623L150.73333333333335,32.88918023121914L150.96,30.58827212533876L151.18666666666667,29.249143607716405L151.41333333333333,32.04688619507556L151.64,31.886614688610905L151.86666666666667,30.00477897954076L152.09333333333333,30.698108289169653L152.32000000000002,29.313068255065986L152.54666666666665,28.50697495521763L152.77333333333334,28.03782865470589L153,29.553343200115734L153.22666666666666,34.01248805015965L153.45333333333335,33.03059496826987L153.67999999999998,30.670575502302285L153.90666666666667,31.085601865416834L154.13333333333333,31.327147208749523L154.36,33.256284290876835L154.58666666666667,32.59048438036723L154.81333333333333,32.20298883245064L155.04,31.977466423563214L155.26666666666665,31.846212381590703L155.49333333333334,29.98126483685502L155.72,30.684423058126555L155.9466666666667,29.305103450598892L156.17333333333335,32.07945482363314L156.39999999999998,31.905569630431415L156.62666666666667,37.170041524911085L156.85333333333332,33.07973339826748L157.08,32.48773176086863L157.30666666666667,35.720302192517806L157.53333333333336,32.23598510681461L157.76,33.78522794755068L157.98666666666665,32.898329588551434L158.21333333333334,30.593597051306148L158.44,32.829358099244786L158.66666666666669,34.130571029145074L158.89333333333332,33.09931926203936L159.12,32.499130733583854L159.34666666666666,32.14982101002272L159.57333333333332,31.946522750910134L159.8,31.82820316410661L160.02666666666667,31.75934116458697L160.25333333333333,31.719263480866545L160.48,31.695938268941262L160.70666666666665,33.47092068790843L160.93333333333334,30.926845071131936L161.16,31.234750754475726L161.38666666666668,31.41395186218176L161.61333333333332,31.518246906866693L161.84,31.57894662287336L162.06666666666666,31.61427385758921L162.29333333333335,37.00050738511692L162.52,34.76962222121497L162.74666666666667,31.682689363516346L162.97333333333333,35.25176751725883L163.2,31.96329792581389L163.42666666666668,30.049408623592882L163.65333333333334,32.5126404343157L163.88,35.734799040464054L164.10666666666668,34.032979964626975L164.33333333333331,33.04252126248983L164.56,30.67751660553833L164.78666666666666,29.301083895192505L165.01333333333335,35.65423082700207L165.24,35.774646956699826L165.46666666666664,35.84472914418393L165.69333333333333,32.30840159268428L165.92,30.25025895771148L166.14666666666668,32.629535328772704L166.37333333333333,34.01427417673034L166.60000000000002,33.03163449393395L166.82666666666665,34.248295890854195L167.0533333333333,34.95639282386176L167.28,33.579947546564455L167.50666666666666,34.56741408748513L167.73333333333335,33.353561921993276L167.96,32.647099961677014L168.18666666666667,30.447381408465247L168.41333333333333,34.532818287419076L168.64,33.333427166354824L168.86666666666667,32.63538153389541L169.09333333333333,35.80623436041944L169.32000000000002,32.28599762853335L169.54666666666665,32.02577754288333L169.77333333333334,31.87432945303499L170,31.78618666474327L170.22666666666666,31.73488756195752L170.45333333333335,31.705031484136185L170.67999999999998,37.05332832376723L170.90666666666667,38.377479392124826L171.13333333333333,33.78246223698588L171.36,34.685277637310406L171.58666666666667,36.999273892606965L171.81333333333333,34.768904328574166L172.04,35.25938693461478L172.26666666666665,39.121963195945796L172.49333333333334,34.21575181080968L172.72,31.36033678466046L172.9466666666667,31.48704293174933L173.17333333333335,33.349343601662724L173.39999999999998,36.22176028386002L173.62666666666667,37.89350679289882L173.85333333333332,35.28934787654404L174.08,33.773727387225534L174.30666666666667,31.1030785701345L174.53333333333336,31.337318650895213L174.76,31.47364637789792L174.98666666666665,31.552989115013503L175.21333333333334,35.176281972630164L175.44,33.707923031147686L175.66666666666669,31.064780434897187L175.89333333333332,31.315029136187093L176.12,31.460673880337822L176.34666666666666,35.122554506048914L176.57333333333332,31.888095953289707L176.8,31.794198767891515L177.02666666666667,35.31666599060517L177.25333333333333,37.36674191422449L177.48,34.982770717155574L177.70666666666665,35.383857172769154L177.93333333333334,37.405847182243946L178.16,38.58264536775826L178.38666666666668,33.90186883480453L178.61333333333332,31.177656892625464L178.84,31.380723234584963L179.06666666666666,31.498907845605373L179.29333333333335,31.567691289219255L179.52,31.607723253402497L179.74666666666667,29.842464164249492L179.97333333333333,34.180756451285504L180.2,34.91708487003277L180.42666666666668,37.13418570205138L180.65333333333334,33.058865309363114L180.88,37.84125961004935L181.10666666666668,35.25894001612565L181.33333333333331,33.75603001246205L181.56,31.09277869802213L181.78666666666666,38.48555489455657L182.01333333333335,37.42247756401653L182.24,36.803766557642234L182.46666666666664,32.86656136731702L182.69333333333333,32.36366563885542L182.92,32.07098032489077L183.14666666666668,31.90063747216334L183.37333333333333,31.801497931875986L183.60000000000002,33.53235641173643L183.82666666666665,34.53971604701522L184.0533333333333,35.12599935474748L184.28,31.890100855232276L184.50666666666666,35.37248100543749L184.73333333333335,32.03355317593386L184.96,31.878854871470423L185.18666666666667,31.78882045827271L185.41333333333333,31.73642042979162L185.64,29.91736592090797L185.86666666666667,30.647233889045367L186.09333333333333,31.072017046501315L186.32000000000002,29.53068315183299L186.54666666666665,30.422184517443725L186.77333333333334,30.941038312229182L187,29.454453528486596L187.22666666666666,30.377818876656136L187.45333333333335,36.28089058621387L187.67999999999998,36.13936293656107L187.90666666666667,34.26843615215549L188.13333333333333,33.17955676363141L188.36,37.91150203643349L188.58666666666667,33.5112634159735L188.81333333333333,34.52743992348121L189.04,36.90741234315837L189.26666666666665,36.50399859910277L189.49333333333334,36.269211800062436L189.72,32.55545049840558L189.9466666666667,33.971156805456644L190.17333333333335,33.00654018385268L190.39999999999998,32.44513331007917L190.62666666666667,30.329836817235332L190.85333333333332,30.887291950707862L191.08,34.7888462230043L191.30666666666667,33.4824354248654L191.53333333333336,30.933546648040902L191.76,31.238651072236706L191.98666666666665,29.627664154810986L192.21333333333334,30.478627461176927L192.44,29.1853304131742L192.66666666666669,30.221189223544286L192.89333333333332,30.824059051179688L193.12,36.54060236778659L193.34666666666666,36.29051519343642L193.57333333333332,34.356406765656914L193.8,35.01931335299693L194.02666666666667,35.40512498682881L194.25333333333333,33.841109665411295L194.48,31.14229505603862L194.70666666666665,33.14870033799909L194.93333333333334,34.31642821210005L195.16,33.20748814251917L195.38666666666668,30.773527329715364L195.61333333333332,31.14551982897126L195.84,29.573461771230512L196.06666666666666,28.658523981625393L196.29333333333335,31.7031455726906L196.52,29.897999954075146L196.74666666666667,34.21307828096403L196.97333333333333,33.147338482598L197.2,32.527077919948965L197.42666666666668,30.37752858017953L197.65333333333334,32.70360624904907L197.88,32.2688257600235L198.10666666666668,32.01578351541059L198.33333333333331,31.86851292904589L198.56,29.994243755473946L198.78666666666666,30.69197678876276L199.01333333333335,31.098057414136832L199.24,33.122954030412245L199.46666666666664,36.09000155339223L199.69333333333333,34.23970782715119L199.92,31.374279186171236L200.14666666666668,35.072272794043954L200.37333333333333,35.43594738151822L200.60000000000002,32.070490606812825L200.82666666666665,31.90035245624199L201.0533333333333,30.012774360302075L201.28,28.914203908465026L201.50666666666666,28.274835905495877L201.73333333333335,33.268396804690894L201.96,30.808976171099346L202.18666666666667,31.16615105465675L202.41333333333333,34.95114222150252L202.64,33.57689169599138L202.86666666666667,32.777077890143914L203.09333333333333,30.52302856283299L203.32000000000002,34.57684493126112L203.54666666666665,35.147608365378574L203.77333333333334,37.268350376342624L204,34.92550684210835L204.22666666666666,31.773414212876276L204.45333333333335,31.727453994970915L204.67999999999998,33.489262840457684L204.90666666666667,34.51463558853101L205.13333333333333,35.11140252790966L205.36,31.881605502012633L205.58666666666667,33.57897901755598L205.81333333333333,32.77829271129451L206.04,30.523735588742625L206.26666666666665,34.57725642034049L206.49333333333334,33.3592901597151L206.72,32.65043379603111L206.9466666666667,32.237879392367034L207.17333333333335,33.78633042174221L207.39999999999998,31.110413536223206L207.62666666666667,29.55302990885113L207.85333333333332,30.435190330028263L208.08,30.948607695153385L208.30666666666667,31.247416601656198L208.53333333333336,31.42132338524081L208.76,29.73397944097937L208.98666666666665,32.32906065003462L209.21333333333334,35.62795560601245L209.44,32.18223939346848L209.66666666666669,31.965390250075586L209.89333333333332,30.050626356313217L210.12,28.93623377014356L210.34666666666666,28.287657284992775L210.57333333333332,31.487301155250407L210.8,35.13805158004803L211.02666666666667,35.47423063497257L211.25333333333333,39.24700222955403L211.48,41.442755297600456L211.70666666666665,42.72068358320348L211.93333333333334,41.675880153116736L212.16,37.490689172190855L212.38666666666668,35.054908021291965L212.61333333333332,35.42584108377653L212.84,33.85316643383484L213.06666666666666,32.937869787568815L213.29333333333335,30.616609447134294L213.52,31.054193621309054L213.74666666666667,31.30886761067879L213.97333333333333,29.66853018018429L214.2,28.713853795636453L214.42666666666668,31.735347524445018L214.65333333333334,31.705299182303946L214.88,31.68781104717783L215.10666666666668,29.88907526022672L215.33333333333331,37.78499949375964L215.56,37.01475432075273L215.78666666666666,32.98935624544731L216.01333333333335,30.646574565619545L216.24,32.86019101257517L216.46666666666664,30.57140040008801L216.69333333333333,32.816439648235814L216.92,34.12305249065784L217.14666666666668,33.094943472639784L217.37333333333333,36.07369940876865L217.60000000000002,39.59589305590339L217.82666666666665,34.49157898930497L218.0533333333333,31.52086820254476L218.28,29.79191452465028L218.50666666666666,34.15133656103876L218.73333333333335,36.68852018621686L218.96,39.95371874837821L219.18666666666667,41.85406431155616L219.41333333333333,37.59439235240259L219.64,33.326705579867536L219.86666666666667,30.842911878252153L220.09333333333333,31.185901636219654L220.32000000000002,33.17407936766446L220.54666666666665,32.54264111505765L220.77333333333334,32.17514405204045L221,31.961260761364457L221.22666666666666,33.625338378498725L221.45333333333335,31.016716167055478L221.67999999999998,33.075613424610935L221.90666666666667,32.485333936200476L222.13333333333333,33.93034896625329L222.36,36.55990540605171L222.58666666666667,36.301749561706714L222.81333333333333,34.36294516799023L223.04,35.02311870315495L223.26666666666665,33.618782008313104L223.49333333333334,38.16713112883821L223.72,33.66003954775309L223.9466666666667,32.82546993986921L224.17333333333335,30.5511927357731L224.39999999999998,31.01612109529688L224.62666666666667,29.498151708232L224.85333333333332,28.614693524960245L225.08,33.46619393921915L225.30666666666667,30.924094103394793L225.53333333333336,33.02170738356037L225.76,30.665402928001384L225.98666666666665,36.44826450409681L226.21333333333334,32.65965917215357L226.44,32.24324856127029L226.66666666666669,33.7894552780439L226.89333333333332,31.112232202590803L227.12,29.554088372677057L227.34666666666666,32.224364048282666L227.57333333333332,31.98990679917742L227.8,31.85345268019819L228.02666666666667,31.77403638295226L228.25333333333333,33.51637379026283L228.48,34.530414161317594L228.70666666666665,33.33202796496377L228.93333333333334,34.423124890993506L229.16,35.058143301942835L229.38666666666668,35.42772401711534L229.61333333333332,35.64281999334577L229.84,33.97944815920414L230.06666666666666,31.222808059426058L230.29333333333335,33.19555890597056L230.52,32.555142206351775L230.74666666666667,32.18241968717365L230.97333333333333,33.754052873319694L231.2,34.66874338765666L231.42666666666668,33.412535574693095L231.65333333333334,32.6814226275483L231.88,34.04447258461775L232.10666666666668,36.62632535193984L232.33333333333331,32.76329058559821L232.56,32.303562043895084L232.78666666666666,33.82455772493154L233.01333333333335,34.70977721129475L233.24,33.43641726005046L233.46666666666664,34.48387946073399L233.69333333333333,35.093502461531784L233.92,35.44830304799615L234.14666666666668,32.077681604703L234.37333333333333,30.11597992470638L234.60000000000002,30.762827239256012L234.82666666666665,32.927850068631614L235.0533333333333,30.61077797071283L235.28,29.262242009724105L235.50666666666666,30.265951772736344L235.73333333333335,30.850110854809486L235.96,31.190091440576026L236.18666666666667,33.176517833799835L236.41333333333333,32.54406030234844L236.64,32.17597001904372L236.86666666666667,33.75029916646804L237.09333333333333,32.878001037961326L237.32000000000002,30.581765834862722L237.54666666666665,31.03391463896702L237.77333333333334,31.29706524295574L238,33.23877658678484L238.22666666666666,32.580294896585684L238.45333333333335,33.98561624519749L238.67999999999998,36.59207096239723L238.90666666666667,32.74335453088443L239.13333333333333,34.080516952359346L239.36,33.07018778935006L239.58666666666667,34.270733908786326L239.81333333333333,36.75800944260595L240.04,38.205603803288966L240.26666666666665,35.47098833659112L240.49333333333334,32.09088444266524L240.72,33.700779361015805L240.9466666666667,36.42629589580349L241.17333333333335,36.22398882674224L241.39999999999998,32.52913072793322L241.62666666666667,33.95583869904175L241.85333333333332,32.99762504591922L242.08,34.22850239210959L242.30666666666667,31.367757622977024L242.53333333333336,29.70280416734184L242.76,28.733801256162195L242.98666666666665,33.53551463877869L243.21333333333334,34.5415541351538L243.44,35.127069122044134L243.66666666666669,31.89072345979892L243.89333333333332,31.79572797667987L244.12,31.740440605504602L244.34666666666666,37.073936432403684L244.57333333333332,36.600915619043576L244.8,36.325617505667964L245.02666666666667,32.58827861906798L245.25333333333333,33.99026277168218L245.48,34.80621754850364L245.70666666666665,35.281103228613745L245.93333333333334,35.55748669443781L246.16,32.141226486932055L246.38666666666668,30.152963046163677L246.61333333333332,30.7843514159442L246.84,29.363261754848736L247.06666666666666,30.3247452643989L247.29333333333335,29.095770974649383L247.52,37.32329639955364L247.74666666666667,34.957485427617144L247.97333333333333,35.369141134257774L248.2,35.608724755522616L248.42666666666668,35.74816242309879L248.65333333333334,35.82931514562813L248.88,34.087988337832485L249.10666666666668,36.65165152031079" style="fill: none;" fill="none"></path></g></g></g></g><g opacity="0.2"><g><g><g><path stroke="rgb(0, 119, 187)" stroke-width="2px" d="M22.666666666666664,61.89408318813031L45.33333333333333,35.113940679110016L68,35.26258155015799L90.66666666666666,34.24687301195584L113.33333333333334,33.92481371072623L136,33.553215613731965L158.66666666666669,33.40457474268399L181.33333333333331,33.30548082865201L204,33.37979718355032L226.66666666666669,33.28070326951834L249.10666666666668,32.95865212954007" style="fill: none;" fill="none"></path></g><g><path stroke="rgb(255, 112, 67)" stroke-width="2px" d="M22.666666666666664,155.75L22.893333333333334,53.05769230769232L23.12,44.5L23.346666666666668,48.77884615384616L23.573333333333334,53.05769230769232L23.799999999999997,40.22115384615384L24.026666666666667,44.5L24.253333333333334,44.5L24.48,53.05769230769232L24.706666666666667,40.22115384615384L24.93333333333333,53.05769230769232L25.16,57.33653846153848L25.386666666666667,31.66346153846152L25.613333333333333,40.22115384615384L25.84,31.66346153846152L26.06666666666667,40.22115384615384L26.293333333333333,35.94230769230768L26.52,31.66346153846152L26.746666666666666,35.94230769230768L26.973333333333333,40.22115384615384L27.200000000000003,27.384615384615387L27.426666666666666,27.384615384615387L27.653333333333332,40.22115384615384L27.88,35.94230769230768L28.106666666666666,35.94230769230768L28.333333333333336,44.5L28.56,35.94230769230768L28.78666666666667,35.94230769230768L29.013333333333335,40.22115384615384L29.24,40.22115384615384L29.46666666666667,44.5L29.69333333333333,27.384615384615387L29.92,27.384615384615387L30.14666666666667,27.384615384615387L30.37333333333333,31.66346153846152L30.6,27.384615384615387L30.826666666666664,35.94230769230768L31.053333333333335,44.5L31.28,35.94230769230768L31.506666666666664,40.22115384615384L31.733333333333334,35.94230769230768L31.959999999999997,48.77884615384616L32.18666666666667,31.66346153846152L32.413333333333334,40.22115384615384L32.64,44.5L32.86666666666667,35.94230769230768L33.093333333333334,31.66346153846152L33.32,44.5L33.54666666666667,27.384615384615387L33.77333333333333,31.66346153846152L34,40.22115384615384L34.22666666666667,40.22115384615384L34.45333333333333,27.384615384615387L34.68,27.384615384615387L34.906666666666666,40.22115384615384L35.13333333333334,35.94230769230768L35.36,40.22115384615384L35.586666666666666,31.66346153846152L35.81333333333333,40.22115384615384L36.04,35.94230769230768L36.266666666666666,48.77884615384616L36.49333333333333,31.66346153846152L36.72,35.94230769230768L36.946666666666665,40.22115384615384L37.17333333333333,35.94230769230768L37.400000000000006,31.66346153846152L37.626666666666665,31.66346153846152L37.85333333333333,40.22115384615384L38.080000000000005,35.94230769230768L38.306666666666665,35.94230769230768L38.53333333333333,40.22115384615384L38.76,40.22115384615384L38.98666666666667,44.5L39.21333333333333,35.94230769230768L39.44,48.77884615384616L39.66666666666667,35.94230769230768L39.89333333333333,35.94230769230768L40.12,40.22115384615384L40.34666666666667,27.384615384615387L40.57333333333334,27.384615384615387L40.8,44.5L41.02666666666667,35.94230769230768L41.25333333333334,35.94230769230768L41.48,44.5L41.70666666666666,35.94230769230768L41.93333333333334,35.94230769230768L42.16,40.22115384615384L42.38666666666666,35.94230769230768L42.61333333333334,40.22115384615384L42.84,35.94230769230768L43.06666666666666,48.77884615384616L43.29333333333334,31.66346153846152L43.52,48.77884615384616L43.74666666666666,27.384615384615387L43.97333333333333,40.22115384615384L44.2,31.66346153846152L44.42666666666666,48.77884615384616L44.65333333333333,35.94230769230768L44.88,40.22115384615384L45.10666666666667,35.94230769230768L45.33333333333333,35.94230769230768L45.56,35.94230769230768L45.78666666666667,31.66346153846152L46.01333333333333,31.66346153846152L46.24,31.66346153846152L46.46666666666667,27.384615384615387L46.693333333333335,35.94230769230768L46.919999999999995,35.94230769230768L47.14666666666667,35.94230769230768L47.373333333333335,27.384615384615387L47.599999999999994,35.94230769230768L47.82666666666667,40.22115384615384L48.053333333333335,31.66346153846152L48.28,40.22115384615384L48.50666666666667,27.384615384615387L48.733333333333334,35.94230769230768L48.96,35.94230769230768L49.18666666666667,27.384615384615387L49.413333333333334,40.22115384615384L49.64,31.66346153846152L49.86666666666666,31.66346153846152L50.093333333333334,31.66346153846152L50.32,31.66346153846152L50.54666666666667,35.94230769230768L50.77333333333333,35.94230769230768L51,31.66346153846152L51.22666666666667,31.66346153846152L51.45333333333333,35.94230769230768L51.68,35.94230769230768L51.906666666666666,40.22115384615384L52.13333333333334,27.384615384615387L52.36,31.66346153846152L52.586666666666666,35.94230769230768L52.81333333333333,40.22115384615384L53.04,40.22115384615384L53.266666666666666,27.384615384615387L53.49333333333333,44.5L53.72,31.66346153846152L53.946666666666665,40.22115384615384L54.17333333333333,31.66346153846152L54.400000000000006,48.77884615384616L54.626666666666665,40.22115384615384L54.85333333333333,31.66346153846152L55.080000000000005,44.5L55.306666666666665,40.22115384615384L55.53333333333333,48.77884615384616L55.76,35.94230769230768L55.98666666666667,35.94230769230768L56.21333333333333,44.5L56.44,35.94230769230768L56.66666666666667,40.22115384615384L56.89333333333333,35.94230769230768L57.12,31.66346153846152L57.34666666666667,35.94230769230768L57.57333333333334,35.94230769230768L57.8,40.22115384615384L58.02666666666667,48.77884615384616L58.25333333333334,35.94230769230768L58.48,44.5L58.70666666666666,35.94230769230768L58.93333333333334,31.66346153846152L59.16,40.22115384615384L59.38666666666666,40.22115384615384L59.61333333333334,35.94230769230768L59.84,31.66346153846152L60.06666666666666,35.94230769230768L60.29333333333334,31.66346153846152L60.52,27.384615384615387L60.74666666666666,44.5L60.97333333333333,27.384615384615387L61.2,31.66346153846152L61.42666666666666,27.384615384615387L61.65333333333333,40.22115384615384L61.88,27.384615384615387L62.10666666666667,27.384615384615387L62.33333333333333,27.384615384615387L62.56,31.66346153846152L62.78666666666667,40.22115384615384L63.01333333333333,35.94230769230768L63.24,31.66346153846152L63.46666666666667,35.94230769230768L63.693333333333335,35.94230769230768L63.919999999999995,27.384615384615387L64.14666666666668,35.94230769230768L64.37333333333333,31.66346153846152L64.6,44.5L64.82666666666667,31.66346153846152L65.05333333333333,40.22115384615384L65.28,27.384615384615387L65.50666666666667,31.66346153846152L65.73333333333333,31.66346153846152L65.96,40.22115384615384L66.18666666666667,35.94230769230768L66.41333333333334,31.66346153846152L66.64,31.66346153846152L66.86666666666666,31.66346153846152L67.09333333333333,31.66346153846152L67.32,31.66346153846152L67.54666666666667,53.05769230769232L67.77333333333334,44.5L68,40.22115384615384L68.22666666666667,40.22115384615384L68.45333333333333,44.5L68.68,31.66346153846152L68.90666666666667,27.384615384615387L69.13333333333333,40.22115384615384L69.36,27.384615384615387L69.58666666666667,35.94230769230768L69.81333333333333,40.22115384615384L70.04,31.66346153846152L70.26666666666668,31.66346153846152L70.49333333333333,27.384615384615387L70.72,31.66346153846152L70.94666666666666,35.94230769230768L71.17333333333333,44.5L71.4,31.66346153846152L71.62666666666667,35.94230769230768L71.85333333333332,31.66346153846152L72.08,31.66346153846152L72.30666666666666,31.66346153846152L72.53333333333333,44.5L72.76,31.66346153846152L72.98666666666666,35.94230769230768L73.21333333333334,31.66346153846152L73.44,40.22115384615384L73.66666666666666,31.66346153846152L73.89333333333333,31.66346153846152L74.12,27.384615384615387L74.34666666666666,31.66346153846152L74.57333333333334,35.94230769230768L74.80000000000001,27.384615384615387L75.02666666666666,40.22115384615384L75.25333333333333,27.384615384615387L75.48,27.384615384615387L75.70666666666666,40.22115384615384L75.93333333333334,27.384615384615387L76.16000000000001,35.94230769230768L76.38666666666667,35.94230769230768L76.61333333333333,35.94230769230768L76.83999999999999,27.384615384615387L77.06666666666666,31.66346153846152L77.29333333333334,31.66346153846152L77.52,44.5L77.74666666666667,27.384615384615387L77.97333333333334,31.66346153846152L78.19999999999999,27.384615384615387L78.42666666666666,27.384615384615387L78.65333333333334,35.94230769230768L78.88,40.22115384615384L79.10666666666667,27.384615384615387L79.33333333333334,31.66346153846152L79.56,31.66346153846152L79.78666666666666,40.22115384615384L80.01333333333334,35.94230769230768L80.24,35.94230769230768L80.46666666666667,40.22115384615384L80.69333333333334,31.66346153846152L80.92,48.77884615384616L81.14666666666668,35.94230769230768L81.37333333333333,27.384615384615387L81.6,35.94230769230768L81.82666666666667,40.22115384615384L82.05333333333334,31.66346153846152L82.28,35.94230769230768L82.50666666666667,35.94230769230768L82.73333333333332,31.66346153846152L82.96,31.66346153846152L83.18666666666667,31.66346153846152L83.41333333333333,35.94230769230768L83.64,35.94230769230768L83.86666666666667,40.22115384615384L84.09333333333333,31.66346153846152L84.32,35.94230769230768L84.54666666666667,31.66346153846152L84.77333333333333,31.66346153846152L85,35.94230769230768L85.22666666666667,27.384615384615387L85.45333333333333,27.384615384615387L85.68,27.384615384615387L85.90666666666667,35.94230769230768L86.13333333333333,27.384615384615387L86.36,35.94230769230768L86.58666666666667,31.66346153846152L86.81333333333333,35.94230769230768L87.04,31.66346153846152L87.26666666666668,27.384615384615387L87.49333333333333,27.384615384615387L87.72,35.94230769230768L87.94666666666666,27.384615384615387L88.17333333333333,35.94230769230768L88.4,40.22115384615384L88.62666666666667,35.94230769230768L88.85333333333332,44.5L89.08,27.384615384615387L89.30666666666666,27.384615384615387L89.53333333333333,35.94230769230768L89.76,35.94230769230768L89.98666666666666,27.384615384615387L90.21333333333334,35.94230769230768L90.44,31.66346153846152L90.66666666666666,27.384615384615387L90.89333333333333,31.66346153846152L91.12,44.5L91.34666666666666,31.66346153846152L91.57333333333334,44.5L91.80000000000001,40.22115384615384L92.02666666666666,31.66346153846152L92.25333333333333,40.22115384615384L92.48,40.22115384615384L92.70666666666666,27.384615384615387L92.93333333333334,40.22115384615384L93.16000000000001,27.384615384615387L93.38666666666667,31.66346153846152L93.61333333333333,31.66346153846152L93.83999999999999,35.94230769230768L94.06666666666666,31.66346153846152L94.29333333333334,31.66346153846152L94.52,27.384615384615387L94.74666666666667,35.94230769230768L94.97333333333334,27.384615384615387L95.19999999999999,31.66346153846152L95.42666666666666,31.66346153846152L95.65333333333334,40.22115384615384L95.88,44.5L96.10666666666667,27.384615384615387L96.33333333333334,31.66346153846152L96.56,40.22115384615384L96.78666666666666,35.94230769230768L97.01333333333334,27.384615384615387L97.24,27.384615384615387L97.46666666666667,44.5L97.69333333333334,35.94230769230768L97.92,31.66346153846152L98.14666666666668,35.94230769230768L98.37333333333333,48.77884615384616L98.6,31.66346153846152L98.82666666666667,31.66346153846152L99.05333333333334,40.22115384615384L99.28,31.66346153846152L99.50666666666667,31.66346153846152L99.73333333333332,35.94230769230768L99.96,35.94230769230768L100.18666666666667,31.66346153846152L100.41333333333333,27.384615384615387L100.64,31.66346153846152L100.86666666666667,27.384615384615387L101.09333333333333,40.22115384615384L101.32,27.384615384615387L101.54666666666667,27.384615384615387L101.77333333333333,27.384615384615387L102,31.66346153846152L102.22666666666667,35.94230769230768L102.45333333333333,31.66346153846152L102.68,31.66346153846152L102.90666666666667,31.66346153846152L103.13333333333333,40.22115384615384L103.36,27.384615384615387L103.58666666666667,31.66346153846152L103.81333333333333,31.66346153846152L104.04,27.384615384615387L104.26666666666668,40.22115384615384L104.49333333333333,40.22115384615384L104.72,35.94230769230768L104.94666666666666,27.384615384615387L105.17333333333333,31.66346153846152L105.4,31.66346153846152L105.62666666666667,31.66346153846152L105.85333333333332,27.384615384615387L106.08,35.94230769230768L106.30666666666666,27.384615384615387L106.53333333333333,35.94230769230768L106.76,35.94230769230768L106.98666666666666,40.22115384615384L107.21333333333334,40.22115384615384L107.44,27.384615384615387L107.66666666666666,40.22115384615384L107.89333333333333,35.94230769230768L108.12,31.66346153846152L108.34666666666666,35.94230769230768L108.57333333333334,35.94230769230768L108.80000000000001,35.94230769230768L109.02666666666666,27.384615384615387L109.25333333333333,27.384615384615387L109.48,31.66346153846152L109.70666666666666,35.94230769230768L109.93333333333334,35.94230769230768L110.16000000000001,27.384615384615387L110.38666666666667,40.22115384615384L110.61333333333333,31.66346153846152L110.83999999999999,40.22115384615384L111.06666666666666,27.384615384615387L111.29333333333334,31.66346153846152L111.52,35.94230769230768L111.74666666666667,31.66346153846152L111.97333333333334,35.94230769230768L112.19999999999999,44.5L112.42666666666666,35.94230769230768L112.65333333333334,27.384615384615387L112.88,35.94230769230768L113.10666666666667,31.66346153846152L113.33333333333334,31.66346153846152L113.56,31.66346153846152L113.78666666666666,27.384615384615387L114.01333333333334,35.94230769230768L114.24,35.94230769230768L114.46666666666667,31.66346153846152L114.69333333333334,35.94230769230768L114.92,35.94230769230768L115.14666666666668,27.384615384615387L115.37333333333333,35.94230769230768L115.6,31.66346153846152L115.82666666666667,35.94230769230768L116.05333333333334,35.94230769230768L116.28,35.94230769230768L116.50666666666667,44.5L116.73333333333332,35.94230769230768L116.96,48.77884615384616L117.18666666666667,35.94230769230768L117.41333333333333,44.5L117.64,35.94230769230768L117.86666666666667,40.22115384615384L118.09333333333333,27.384615384615387L118.32,31.66346153846152L118.54666666666667,31.66346153846152L118.77333333333333,31.66346153846152L119,27.384615384615387L119.22666666666667,40.22115384615384L119.45333333333333,35.94230769230768L119.68,35.94230769230768L119.90666666666667,35.94230769230768L120.13333333333333,35.94230769230768L120.36,27.384615384615387L120.58666666666667,31.66346153846152L120.81333333333333,40.22115384615384L121.04,27.384615384615387L121.26666666666668,40.22115384615384L121.49333333333333,44.5L121.72,40.22115384615384L121.94666666666666,31.66346153846152L122.17333333333333,31.66346153846152L122.4,31.66346153846152L122.62666666666667,35.94230769230768L122.85333333333332,31.66346153846152L123.08,35.94230769230768L123.30666666666666,27.384615384615387L123.53333333333333,31.66346153846152L123.76,27.384615384615387L123.98666666666666,27.384615384615387L124.21333333333334,31.66346153846152L124.44,31.66346153846152L124.66666666666666,35.94230769230768L124.89333333333333,31.66346153846152L125.12,31.66346153846152L125.34666666666666,35.94230769230768L125.57333333333334,27.384615384615387L125.80000000000001,31.66346153846152L126.02666666666666,31.66346153846152L126.25333333333333,31.66346153846152L126.48,35.94230769230768L126.70666666666666,31.66346153846152L126.93333333333334,27.384615384615387L127.16000000000001,40.22115384615384L127.38666666666667,27.384615384615387L127.61333333333333,31.66346153846152L127.83999999999999,27.384615384615387L128.06666666666666,31.66346153846152L128.29333333333335,35.94230769230768L128.51999999999998,31.66346153846152L128.74666666666667,31.66346153846152L128.97333333333333,31.66346153846152L129.2,35.94230769230768L129.42666666666668,27.384615384615387L129.65333333333334,27.384615384615387L129.88,44.5L130.10666666666665,27.384615384615387L130.33333333333334,27.384615384615387L130.56,35.94230769230768L130.78666666666666,31.66346153846152L131.01333333333335,27.384615384615387L131.24,27.384615384615387L131.46666666666667,48.77884615384616L131.69333333333333,35.94230769230768L131.92,31.66346153846152L132.14666666666668,35.94230769230768L132.37333333333333,35.94230769230768L132.6,35.94230769230768L132.82666666666668,31.66346153846152L133.05333333333334,31.66346153846152L133.28,35.94230769230768L133.50666666666666,31.66346153846152L133.73333333333332,40.22115384615384L133.96,35.94230769230768L134.18666666666667,27.384615384615387L134.41333333333333,31.66346153846152L134.64,44.5L134.86666666666667,27.384615384615387L135.09333333333333,35.94230769230768L135.32,31.66346153846152L135.54666666666668,27.384615384615387L135.77333333333334,35.94230769230768L136,27.384615384615387L136.22666666666666,35.94230769230768L136.45333333333335,31.66346153846152L136.67999999999998,35.94230769230768L136.90666666666667,35.94230769230768L137.13333333333333,31.66346153846152L137.36,31.66346153846152L137.58666666666667,35.94230769230768L137.81333333333333,27.384615384615387L138.04,27.384615384615387L138.26666666666665,44.5L138.49333333333334,31.66346153846152L138.72,31.66346153846152L138.9466666666667,35.94230769230768L139.17333333333335,27.384615384615387L139.39999999999998,27.384615384615387L139.62666666666667,27.384615384615387L139.85333333333332,35.94230769230768L140.08,31.66346153846152L140.30666666666667,35.94230769230768L140.53333333333336,35.94230769230768L140.76,27.384615384615387L140.98666666666665,27.384615384615387L141.21333333333334,31.66346153846152L141.44,35.94230769230768L141.66666666666669,40.22115384615384L141.89333333333332,31.66346153846152L142.12,27.384615384615387L142.34666666666666,27.384615384615387L142.57333333333332,31.66346153846152L142.8,31.66346153846152L143.02666666666667,27.384615384615387L143.25333333333333,27.384615384615387L143.48,35.94230769230768L143.70666666666665,27.384615384615387L143.93333333333334,44.5L144.16,40.22115384615384L144.38666666666668,35.94230769230768L144.61333333333332,27.384615384615387L144.84,35.94230769230768L145.06666666666666,40.22115384615384L145.29333333333335,27.384615384615387L145.52,27.384615384615387L145.74666666666667,40.22115384615384L145.97333333333333,27.384615384615387L146.2,31.66346153846152L146.42666666666668,27.384615384615387L146.65333333333334,27.384615384615387L146.88,35.94230769230768L147.10666666666668,40.22115384615384L147.33333333333331,35.94230769230768L147.56,31.66346153846152L147.78666666666666,31.66346153846152L148.01333333333335,35.94230769230768L148.24,35.94230769230768L148.46666666666664,31.66346153846152L148.69333333333333,31.66346153846152L148.92,27.384615384615387L149.14666666666668,40.22115384615384L149.37333333333333,31.66346153846152L149.60000000000002,27.384615384615387L149.82666666666665,53.05769230769232L150.0533333333333,27.384615384615387L150.28,35.94230769230768L150.50666666666666,31.66346153846152L150.73333333333335,31.66346153846152L150.96,27.384615384615387L151.18666666666667,27.384615384615387L151.41333333333333,35.94230769230768L151.64,31.66346153846152L151.86666666666667,27.384615384615387L152.09333333333333,31.66346153846152L152.32000000000002,27.384615384615387L152.54666666666665,27.384615384615387L152.77333333333334,27.384615384615387L153,31.66346153846152L153.22666666666666,40.22115384615384L153.45333333333335,31.66346153846152L153.67999999999998,27.384615384615387L153.90666666666667,31.66346153846152L154.13333333333333,31.66346153846152L154.36,35.94230769230768L154.58666666666667,31.66346153846152L154.81333333333333,31.66346153846152L155.04,31.66346153846152L155.26666666666665,31.66346153846152L155.49333333333334,27.384615384615387L155.72,31.66346153846152L155.9466666666667,27.384615384615387L156.17333333333335,35.94230769230768L156.39999999999998,31.66346153846152L156.62666666666667,44.5L156.85333333333332,27.384615384615387L157.08,31.66346153846152L157.30666666666667,40.22115384615384L157.53333333333336,27.384615384615387L157.76,35.94230769230768L157.98666666666665,31.66346153846152L158.21333333333334,27.384615384615387L158.44,35.94230769230768L158.66666666666669,35.94230769230768L158.89333333333332,31.66346153846152L159.12,31.66346153846152L159.34666666666666,31.66346153846152L159.57333333333332,31.66346153846152L159.8,31.66346153846152L160.02666666666667,31.66346153846152L160.25333333333333,31.66346153846152L160.48,31.66346153846152L160.70666666666665,35.94230769230768L160.93333333333334,27.384615384615387L161.16,31.66346153846152L161.38666666666668,31.66346153846152L161.61333333333332,31.66346153846152L161.84,31.66346153846152L162.06666666666666,31.66346153846152L162.29333333333335,44.5L162.52,31.66346153846152L162.74666666666667,27.384615384615387L162.97333333333333,40.22115384615384L163.2,27.384615384615387L163.42666666666668,27.384615384615387L163.65333333333334,35.94230769230768L163.88,40.22115384615384L164.10666666666668,31.66346153846152L164.33333333333331,31.66346153846152L164.56,27.384615384615387L164.78666666666666,27.384615384615387L165.01333333333335,44.5L165.24,35.94230769230768L165.46666666666664,35.94230769230768L165.69333333333333,27.384615384615387L165.92,27.384615384615387L166.14666666666668,35.94230769230768L166.37333333333333,35.94230769230768L166.60000000000002,31.66346153846152L166.82666666666665,35.94230769230768L167.0533333333333,35.94230769230768L167.28,31.66346153846152L167.50666666666666,35.94230769230768L167.73333333333335,31.66346153846152L167.96,31.66346153846152L168.18666666666667,27.384615384615387L168.41333333333333,40.22115384615384L168.64,31.66346153846152L168.86666666666667,31.66346153846152L169.09333333333333,40.22115384615384L169.32000000000002,27.384615384615387L169.54666666666665,31.66346153846152L169.77333333333334,31.66346153846152L170,31.66346153846152L170.22666666666666,31.66346153846152L170.45333333333335,31.66346153846152L170.67999999999998,44.5L170.90666666666667,40.22115384615384L171.13333333333333,27.384615384615387L171.36,35.94230769230768L171.58666666666667,40.22115384615384L171.81333333333333,31.66346153846152L172.04,35.94230769230768L172.26666666666665,44.5L172.49333333333334,27.384615384615387L172.72,27.384615384615387L172.9466666666667,31.66346153846152L173.17333333333335,35.94230769230768L173.39999999999998,40.22115384615384L173.62666666666667,40.22115384615384L173.85333333333332,31.66346153846152L174.08,31.66346153846152L174.30666666666667,27.384615384615387L174.53333333333336,31.66346153846152L174.76,31.66346153846152L174.98666666666665,31.66346153846152L175.21333333333334,40.22115384615384L175.44,31.66346153846152L175.66666666666669,27.384615384615387L175.89333333333332,31.66346153846152L176.12,31.66346153846152L176.34666666666666,40.22115384615384L176.57333333333332,27.384615384615387L176.8,31.66346153846152L177.02666666666667,40.22115384615384L177.25333333333333,40.22115384615384L177.48,31.66346153846152L177.70666666666665,35.94230769230768L177.93333333333334,40.22115384615384L178.16,40.22115384615384L178.38666666666668,27.384615384615387L178.61333333333332,27.384615384615387L178.84,31.66346153846152L179.06666666666666,31.66346153846152L179.29333333333335,31.66346153846152L179.52,31.66346153846152L179.74666666666667,27.384615384615387L179.97333333333333,40.22115384615384L180.2,35.94230769230768L180.42666666666668,40.22115384615384L180.65333333333334,27.384615384615387L180.88,44.5L181.10666666666668,31.66346153846152L181.33333333333331,31.66346153846152L181.56,27.384615384615387L181.78666666666666,48.77884615384616L182.01333333333335,35.94230769230768L182.24,35.94230769230768L182.46666666666664,27.384615384615387L182.69333333333333,31.66346153846152L182.92,31.66346153846152L183.14666666666668,31.66346153846152L183.37333333333333,31.66346153846152L183.60000000000002,35.94230769230768L183.82666666666665,35.94230769230768L184.0533333333333,35.94230769230768L184.28,27.384615384615387L184.50666666666666,40.22115384615384L184.73333333333335,27.384615384615387L184.96,31.66346153846152L185.18666666666667,31.66346153846152L185.41333333333333,31.66346153846152L185.64,27.384615384615387L185.86666666666667,31.66346153846152L186.09333333333333,31.66346153846152L186.32000000000002,27.384615384615387L186.54666666666665,31.66346153846152L186.77333333333334,31.66346153846152L187,27.384615384615387L187.22666666666666,31.66346153846152L187.45333333333335,44.5L187.67999999999998,35.94230769230768L187.90666666666667,31.66346153846152L188.13333333333333,31.66346153846152L188.36,44.5L188.58666666666667,27.384615384615387L188.81333333333333,35.94230769230768L189.04,40.22115384615384L189.26666666666665,35.94230769230768L189.49333333333334,35.94230769230768L189.72,27.384615384615387L189.9466666666667,35.94230769230768L190.17333333333335,31.66346153846152L190.39999999999998,31.66346153846152L190.62666666666667,27.384615384615387L190.85333333333332,31.66346153846152L191.08,40.22115384615384L191.30666666666667,31.66346153846152L191.53333333333336,27.384615384615387L191.76,31.66346153846152L191.98666666666665,27.384615384615387L192.21333333333334,31.66346153846152L192.44,27.384615384615387L192.66666666666669,31.66346153846152L192.89333333333332,31.66346153846152L193.12,44.5L193.34666666666666,35.94230769230768L193.57333333333332,31.66346153846152L193.8,35.94230769230768L194.02666666666667,35.94230769230768L194.25333333333333,31.66346153846152L194.48,27.384615384615387L194.70666666666665,35.94230769230768L194.93333333333334,35.94230769230768L195.16,31.66346153846152L195.38666666666668,27.384615384615387L195.61333333333332,31.66346153846152L195.84,27.384615384615387L196.06666666666666,27.384615384615387L196.29333333333335,35.94230769230768L196.52,27.384615384615387L196.74666666666667,40.22115384615384L196.97333333333333,31.66346153846152L197.2,31.66346153846152L197.42666666666668,27.384615384615387L197.65333333333334,35.94230769230768L197.88,31.66346153846152L198.10666666666668,31.66346153846152L198.33333333333331,31.66346153846152L198.56,27.384615384615387L198.78666666666666,31.66346153846152L199.01333333333335,31.66346153846152L199.24,35.94230769230768L199.46666666666664,40.22115384615384L199.69333333333333,31.66346153846152L199.92,27.384615384615387L200.14666666666668,40.22115384615384L200.37333333333333,35.94230769230768L200.60000000000002,27.384615384615387L200.82666666666665,31.66346153846152L201.0533333333333,27.384615384615387L201.28,27.384615384615387L201.50666666666666,27.384615384615387L201.73333333333335,40.22115384615384L201.96,27.384615384615387L202.18666666666667,31.66346153846152L202.41333333333333,40.22115384615384L202.64,31.66346153846152L202.86666666666667,31.66346153846152L203.09333333333333,27.384615384615387L203.32000000000002,40.22115384615384L203.54666666666665,35.94230769230768L203.77333333333334,40.22115384615384L204,31.66346153846152L204.22666666666666,27.384615384615387L204.45333333333335,31.66346153846152L204.67999999999998,35.94230769230768L204.90666666666667,35.94230769230768L205.13333333333333,35.94230769230768L205.36,27.384615384615387L205.58666666666667,35.94230769230768L205.81333333333333,31.66346153846152L206.04,27.384615384615387L206.26666666666665,40.22115384615384L206.49333333333334,31.66346153846152L206.72,31.66346153846152L206.9466666666667,31.66346153846152L207.17333333333335,35.94230769230768L207.39999999999998,27.384615384615387L207.62666666666667,27.384615384615387L207.85333333333332,31.66346153846152L208.08,31.66346153846152L208.30666666666667,31.66346153846152L208.53333333333336,31.66346153846152L208.76,27.384615384615387L208.98666666666665,35.94230769230768L209.21333333333334,40.22115384615384L209.44,27.384615384615387L209.66666666666669,31.66346153846152L209.89333333333332,27.384615384615387L210.12,27.384615384615387L210.34666666666666,27.384615384615387L210.57333333333332,35.94230769230768L210.8,40.22115384615384L211.02666666666667,35.94230769230768L211.25333333333333,44.5L211.48,44.5L211.70666666666665,44.5L211.93333333333334,40.22115384615384L212.16,31.66346153846152L212.38666666666668,31.66346153846152L212.61333333333332,35.94230769230768L212.84,31.66346153846152L213.06666666666666,31.66346153846152L213.29333333333335,27.384615384615387L213.52,31.66346153846152L213.74666666666667,31.66346153846152L213.97333333333333,27.384615384615387L214.2,27.384615384615387L214.42666666666668,35.94230769230768L214.65333333333334,31.66346153846152L214.88,31.66346153846152L215.10666666666668,27.384615384615387L215.33333333333331,48.77884615384616L215.56,35.94230769230768L215.78666666666666,27.384615384615387L216.01333333333335,27.384615384615387L216.24,35.94230769230768L216.46666666666664,27.384615384615387L216.69333333333333,35.94230769230768L216.92,35.94230769230768L217.14666666666668,31.66346153846152L217.37333333333333,40.22115384615384L217.60000000000002,44.5L217.82666666666665,27.384615384615387L218.0533333333333,27.384615384615387L218.28,27.384615384615387L218.50666666666666,40.22115384615384L218.73333333333335,40.22115384615384L218.96,44.5L219.18666666666667,44.5L219.41333333333333,31.66346153846152L219.64,27.384615384615387L219.86666666666667,27.384615384615387L220.09333333333333,31.66346153846152L220.32000000000002,35.94230769230768L220.54666666666665,31.66346153846152L220.77333333333334,31.66346153846152L221,31.66346153846152L221.22666666666666,35.94230769230768L221.45333333333335,27.384615384615387L221.67999999999998,35.94230769230768L221.90666666666667,31.66346153846152L222.13333333333333,35.94230769230768L222.36,40.22115384615384L222.58666666666667,35.94230769230768L222.81333333333333,31.66346153846152L223.04,35.94230769230768L223.26666666666665,31.66346153846152L223.49333333333334,44.5L223.72,27.384615384615387L223.9466666666667,31.66346153846152L224.17333333333335,27.384615384615387L224.39999999999998,31.66346153846152L224.62666666666667,27.384615384615387L224.85333333333332,27.384615384615387L225.08,40.22115384615384L225.30666666666667,27.384615384615387L225.53333333333336,35.94230769230768L225.76,27.384615384615387L225.98666666666665,44.5L226.21333333333334,27.384615384615387L226.44,31.66346153846152L226.66666666666669,35.94230769230768L226.89333333333332,27.384615384615387L227.12,27.384615384615387L227.34666666666666,35.94230769230768L227.57333333333332,31.66346153846152L227.8,31.66346153846152L228.02666666666667,31.66346153846152L228.25333333333333,35.94230769230768L228.48,35.94230769230768L228.70666666666665,31.66346153846152L228.93333333333334,35.94230769230768L229.16,35.94230769230768L229.38666666666668,35.94230769230768L229.61333333333332,35.94230769230768L229.84,31.66346153846152L230.06666666666666,27.384615384615387L230.29333333333335,35.94230769230768L230.52,31.66346153846152L230.74666666666667,31.66346153846152L230.97333333333333,35.94230769230768L231.2,35.94230769230768L231.42666666666668,31.66346153846152L231.65333333333334,31.66346153846152L231.88,35.94230769230768L232.10666666666668,40.22115384615384L232.33333333333331,27.384615384615387L232.56,31.66346153846152L232.78666666666666,35.94230769230768L233.01333333333335,35.94230769230768L233.24,31.66346153846152L233.46666666666664,35.94230769230768L233.69333333333333,35.94230769230768L233.92,35.94230769230768L234.14666666666668,27.384615384615387L234.37333333333333,27.384615384615387L234.60000000000002,31.66346153846152L234.82666666666665,35.94230769230768L235.0533333333333,27.384615384615387L235.28,27.384615384615387L235.50666666666666,31.66346153846152L235.73333333333335,31.66346153846152L235.96,31.66346153846152L236.18666666666667,35.94230769230768L236.41333333333333,31.66346153846152L236.64,31.66346153846152L236.86666666666667,35.94230769230768L237.09333333333333,31.66346153846152L237.32000000000002,27.384615384615387L237.54666666666665,31.66346153846152L237.77333333333334,31.66346153846152L238,35.94230769230768L238.22666666666666,31.66346153846152L238.45333333333335,35.94230769230768L238.67999999999998,40.22115384615384L238.90666666666667,27.384615384615387L239.13333333333333,35.94230769230768L239.36,31.66346153846152L239.58666666666667,35.94230769230768L239.81333333333333,40.22115384615384L240.04,40.22115384615384L240.26666666666665,31.66346153846152L240.49333333333334,27.384615384615387L240.72,35.94230769230768L240.9466666666667,40.22115384615384L241.17333333333335,35.94230769230768L241.39999999999998,27.384615384615387L241.62666666666667,35.94230769230768L241.85333333333332,31.66346153846152L242.08,35.94230769230768L242.30666666666667,27.384615384615387L242.53333333333336,27.384615384615387L242.76,27.384615384615387L242.98666666666665,40.22115384615384L243.21333333333334,35.94230769230768L243.44,35.94230769230768L243.66666666666669,27.384615384615387L243.89333333333332,31.66346153846152L244.12,31.66346153846152L244.34666666666666,44.5L244.57333333333332,35.94230769230768L244.8,35.94230769230768L245.02666666666667,27.384615384615387L245.25333333333333,35.94230769230768L245.48,35.94230769230768L245.70666666666665,35.94230769230768L245.93333333333334,35.94230769230768L246.16,27.384615384615387L246.38666666666668,27.384615384615387L246.61333333333332,31.66346153846152L246.84,27.384615384615387L247.06666666666666,31.66346153846152L247.29333333333335,27.384615384615387L247.52,48.77884615384616L247.74666666666667,31.66346153846152L247.97333333333333,35.94230769230768L248.2,35.94230769230768L248.42666666666668,35.94230769230768L248.65333333333334,35.94230769230768L248.88,31.66346153846152L249.10666666666668,40.22115384615384" style="fill: none;" fill="none"></path></g></g></g></g></g></g><g transform="translate(58, 178)" clip-path="url(#clip_1)"><clipPath id="clip_1"><rect width="272" height="22"></rect></clipPath><g><g><line x1="0" y1="0" x2="0" y2="5" style="visibility: inherit;" fill="rgb(0, 0, 0)" stroke="rgb(204, 204, 204)" stroke-width="1px"></line><line x1="22.666666666666664" y1="0" x2="22.666666666666664" y2="5" style="visibility: inherit;" fill="rgb(0, 0, 0)" stroke="rgb(204, 204, 204)" stroke-width="1px"></line><line x1="45.33333333333333" y1="0" x2="45.33333333333333" y2="5" style="visibility: inherit;" fill="rgb(0, 0, 0)" stroke="rgb(204, 204, 204)" stroke-width="1px"></line><line x1="68" y1="0" x2="68" y2="5" style="visibility: inherit;" fill="rgb(0, 0, 0)" stroke="rgb(204, 204, 204)" stroke-width="1px"></line><line x1="90.66666666666666" y1="0" x2="90.66666666666666" y2="5" style="visibility: inherit;" fill="rgb(0, 0, 0)" stroke="rgb(204, 204, 204)" stroke-width="1px"></line><line x1="113.33333333333334" y1="0" x2="113.33333333333334" y2="5" style="visibility: inherit;" fill="rgb(0, 0, 0)" stroke="rgb(204, 204, 204)" stroke-width="1px"></line><line x1="136" y1="0" x2="136" y2="5" style="visibility: inherit;" fill="rgb(0, 0, 0)" stroke="rgb(204, 204, 204)" stroke-width="1px"></line><line x1="158.66666666666669" y1="0" x2="158.66666666666669" y2="5" style="visibility: inherit;" fill="rgb(0, 0, 0)" stroke="rgb(204, 204, 204)" stroke-width="1px"></line><line x1="181.33333333333331" y1="0" x2="181.33333333333331" y2="5" style="visibility: inherit;" fill="rgb(0, 0, 0)" stroke="rgb(204, 204, 204)" stroke-width="1px"></line><line x1="204" y1="0" x2="204" y2="5" style="visibility: inherit;" fill="rgb(0, 0, 0)" stroke="rgb(204, 204, 204)" stroke-width="1px"></line><line x1="226.66666666666669" y1="0" x2="226.66666666666669" y2="5" style="visibility: inherit;" fill="rgb(0, 0, 0)" stroke="rgb(204, 204, 204)" stroke-width="1px"></line><line x1="249.33333333333331" y1="0" x2="249.33333333333331" y2="5" style="visibility: inherit;" fill="rgb(0, 0, 0)" stroke="rgb(204, 204, 204)" stroke-width="1px"></line><line x1="272" y1="0" x2="272" y2="5" style="visibility: inherit;" fill="rgb(0, 0, 0)" stroke="rgb(204, 204, 204)" stroke-width="1px"></line></g><g transform="translate(0, 8)"><text x="0" y="0" dx="0em" dy="0.95em" style="text-anchor: middle; visibility: hidden; font-family: &quot;Helvetica Neue&quot;, sans-serif; font-size: 12px; font-weight: 200;" fill="rgb(50, 49, 63)" stroke="none" stroke-width="1px">-100</text><text x="22.666666666666664" y="0" dx="0em" dy="0.95em" style="text-anchor: middle; visibility: inherit; font-family: &quot;Helvetica Neue&quot;, sans-serif; font-size: 12px; font-weight: 200;" fill="rgb(50, 49, 63)" stroke="none" stroke-width="1px">0</text><text x="45.33333333333333" y="0" dx="0em" dy="0.95em" style="text-anchor: middle; visibility: hidden; font-family: &quot;Helvetica Neue&quot;, sans-serif; font-size: 12px; font-weight: 200;" fill="rgb(50, 49, 63)" stroke="none" stroke-width="1px">100</text><text x="68" y="0" dx="0em" dy="0.95em" style="text-anchor: middle; visibility: inherit; font-family: &quot;Helvetica Neue&quot;, sans-serif; font-size: 12px; font-weight: 200;" fill="rgb(50, 49, 63)" stroke="none" stroke-width="1px">200</text><text x="90.66666666666666" y="0" dx="0em" dy="0.95em" style="text-anchor: middle; visibility: hidden; font-family: &quot;Helvetica Neue&quot;, sans-serif; font-size: 12px; font-weight: 200;" fill="rgb(50, 49, 63)" stroke="none" stroke-width="1px">300</text><text x="113.33333333333334" y="0" dx="0em" dy="0.95em" style="text-anchor: middle; visibility: inherit; font-family: &quot;Helvetica Neue&quot;, sans-serif; font-size: 12px; font-weight: 200;" fill="rgb(50, 49, 63)" stroke="none" stroke-width="1px">400</text><text x="136" y="0" dx="0em" dy="0.95em" style="text-anchor: middle; visibility: hidden; font-family: &quot;Helvetica Neue&quot;, sans-serif; font-size: 12px; font-weight: 200;" fill="rgb(50, 49, 63)" stroke="none" stroke-width="1px">500</text><text x="158.66666666666669" y="0" dx="0em" dy="0.95em" style="text-anchor: middle; visibility: inherit; font-family: &quot;Helvetica Neue&quot;, sans-serif; font-size: 12px; font-weight: 200;" fill="rgb(50, 49, 63)" stroke="none" stroke-width="1px">600</text><text x="181.33333333333331" y="0" dx="0em" dy="0.95em" style="text-anchor: middle; visibility: hidden; font-family: &quot;Helvetica Neue&quot;, sans-serif; font-size: 12px; font-weight: 200;" fill="rgb(50, 49, 63)" stroke="none" stroke-width="1px">700</text><text x="204" y="0" dx="0em" dy="0.95em" style="text-anchor: middle; visibility: inherit; font-family: &quot;Helvetica Neue&quot;, sans-serif; font-size: 12px; font-weight: 200;" fill="rgb(50, 49, 63)" stroke="none" stroke-width="1px">800</text><text x="226.66666666666669" y="0" dx="0em" dy="0.95em" style="text-anchor: middle; visibility: hidden; font-family: &quot;Helvetica Neue&quot;, sans-serif; font-size: 12px; font-weight: 200;" fill="rgb(50, 49, 63)" stroke="none" stroke-width="1px">900</text><text x="249.33333333333331" y="0" dx="0em" dy="0.95em" style="text-anchor: middle; visibility: inherit; font-family: &quot;Helvetica Neue&quot;, sans-serif; font-size: 12px; font-weight: 200;" fill="rgb(50, 49, 63)" stroke="none" stroke-width="1px">1k</text><text x="272" y="0" dx="0em" dy="0.95em" style="text-anchor: middle; visibility: hidden; font-family: &quot;Helvetica Neue&quot;, sans-serif; font-size: 12px; font-weight: 200;" fill="rgb(50, 49, 63)" stroke="none" stroke-width="1px">1.1k</text></g><line x1="0" y1="0" x2="272" y2="0" fill="rgb(0, 0, 0)" stroke="rgb(204, 204, 204)" stroke-width="1px"></line></g></g></g></g></svg>