<svg viewBox="0 0 330 200" xmlns="http://www.w3.org/2000/svg"><g><g><g><g><g><line x1="58" y1="178" x2="53" y2="178" style="visibility: inherit;" fill="rgb(0, 0, 0)" stroke="rgb(204, 204, 204)" stroke-width="1px"></line><line x1="58" y1="161.8181818181818" x2="53" y2="161.8181818181818" style="visibility: inherit;" fill="rgb(0, 0, 0)" stroke="rgb(204, 204, 204)" stroke-width="1px"></line><line x1="58" y1="145.63636363636363" x2="53" y2="145.63636363636363" style="visibility: inherit;" fill="rgb(0, 0, 0)" stroke="rgb(204, 204, 204)" stroke-width="1px"></line><line x1="58" y1="129.45454545454544" x2="53" y2="129.45454545454544" style="visibility: inherit;" fill="rgb(0, 0, 0)" stroke="rgb(204, 204, 204)" stroke-width="1px"></line><line x1="58" y1="113.27272727272727" x2="53" y2="113.27272727272727" style="visibility: inherit;" fill="rgb(0, 0, 0)" stroke="rgb(204, 204, 204)" stroke-width="1px"></line><line x1="58" y1="97.0909090909091" x2="53" y2="97.0909090909091" style="visibility: inherit;" fill="rgb(0, 0, 0)" stroke="rgb(204, 204, 204)" stroke-width="1px"></line><line x1="58" y1="80.90909090909092" x2="53" y2="80.90909090909092" style="visibility: inherit;" fill="rgb(0, 0, 0)" stroke="rgb(204, 204, 204)" stroke-width="1px"></line><line x1="58" y1="64.72727272727275" x2="53" y2="64.72727272727275" style="visibility: inherit;" fill="rgb(0, 0, 0)" stroke="rgb(204, 204, 204)" stroke-width="1px"></line><line x1="58" y1="48.54545454545456" x2="53" y2="48.54545454545456" style="visibility: inherit;" fill="rgb(0, 0, 0)" stroke="rgb(204, 204, 204)" stroke-width="1px"></line><line x1="58" y1="32.363636363636374" x2="53" y2="32.363636363636374" style="visibility: inherit;" fill="rgb(0, 0, 0)" stroke="rgb(204, 204, 204)" stroke-width="1px"></line><line x1="58" y1="16.181818181818187" x2="53" y2="16.181818181818187" style="visibility: inherit;" fill="rgb(0, 0, 0)" stroke="rgb(204, 204, 204)" stroke-width="1px"></line><line x1="58" y1="0" x2="53" y2="0" style="visibility: inherit;" fill="rgb(0, 0, 0)" stroke="rgb(204, 204, 204)" stroke-width="1px"></line></g><g transform="translate(48, 0)"><text x="0" y="178" dx="0em" dy="0.3em" style="text-anchor: end; visibility: hidden; font-family: &quot;Helvetica Neue&quot;, sans-serif; font-size: 12px; font-weight: 200;" fill="rgb(50, 49, 63)" stroke="none" stroke-width="1px">-0.2</text><text x="0" y="161.8181818181818" dx="0em" dy="0.3em" style="text-anchor: end; visibility: inherit; font-family: &quot;Helvetica Neue&quot;, sans-serif; font-size: 12px; font-weight: 200;" fill="rgb(50, 49, 63)" stroke="none" stroke-width="1px">0</text><text x="0" y="145.63636363636363" dx="0em" dy="0.3em" style="text-anchor: end; visibility: hidden; font-family: &quot;Helvetica Neue&quot;, sans-serif; font-size: 12px; font-weight: 200;" fill="rgb(50, 49, 63)" stroke="none" stroke-width="1px">0.2</text><text x="0" y="129.45454545454544" dx="0em" dy="0.3em" style="text-anchor: end; visibility: inherit; font-family: &quot;Helvetica Neue&quot;, sans-serif; font-size: 12px; font-weight: 200;" fill="rgb(50, 49, 63)" stroke="none" stroke-width="1px">0.4</text><text x="0" y="113.27272727272727" dx="0em" dy="0.3em" style="text-anchor: end; visibility: hidden; font-family: &quot;Helvetica Neue&quot;, sans-serif; font-size: 12px; font-weight: 200;" fill="rgb(50, 49, 63)" stroke="none" stroke-width="1px">0.6</text><text x="0" y="97.0909090909091" dx="0em" dy="0.3em" style="text-anchor: end; visibility: inherit; font-family: &quot;Helvetica Neue&quot;, sans-serif; font-size: 12px; font-weight: 200;" fill="rgb(50, 49, 63)" stroke="none" stroke-width="1px">0.8</text><text x="0" y="80.90909090909092" dx="0em" dy="0.3em" style="text-anchor: end; visibility: hidden; font-family: &quot;Helvetica Neue&quot;, sans-serif; font-size: 12px; font-weight: 200;" fill="rgb(50, 49, 63)" stroke="none" stroke-width="1px">1</text><text x="0" y="64.72727272727275" dx="0em" dy="0.3em" style="text-anchor: end; visibility: inherit; font-family: &quot;Helvetica Neue&quot;, sans-serif; font-size: 12px; font-weight: 200;" fill="rgb(50, 49, 63)" stroke="none" stroke-width="1px">1.2</text><text x="0" y="48.54545454545456" dx="0em" dy="0.3em" style="text-anchor: end; visibility: hidden; font-family: &quot;Helvetica Neue&quot;, sans-serif; font-size: 12px; font-weight: 200;" fill="rgb(50, 49, 63)" stroke="none" stroke-width="1px">1.4</text><text x="0" y="32.363636363636374" dx="0em" dy="0.3em" style="text-anchor: end; visibility: inherit; font-family: &quot;Helvetica Neue&quot;, sans-serif; font-size: 12px; font-weight: 200;" fill="rgb(50, 49, 63)" stroke="none" stroke-width="1px">1.6</text><text x="0" y="16.181818181818187" dx="0em" dy="0.3em" style="text-anchor: end; visibility: hidden; font-family: &quot;Helvetica Neue&quot;, sans-serif; font-size: 12px; font-weight: 200;" fill="rgb(50, 49, 63)" stroke="none" stroke-width="1px">1.8</text><text x="0" y="0" dx="0em" dy="0.3em" style="text-anchor: end; visibility: hidden; font-family: &quot;Helvetica Neue&quot;, sans-serif; font-size: 12px; font-weight: 200;" fill="rgb(50, 49, 63)" stroke="none" stroke-width="1px">2</text></g><line x1="58" y1="0" x2="58" y2="178" fill="rgb(0, 0, 0)" stroke="rgb(204, 204, 204)" stroke-width="1px"></line></g></g><g transform="translate(58, 0)" clip-path="url(#clip_0)"><clipPath id="clip_0"><rect width="272" height="178"></rect></clipPath><g><g><g><line x1="0" y1="0" x2="0" y2="178" fill="rgb(0, 0, 0)" stroke="rgb(60, 60, 60)" stroke-width="1px" opacity="0.25"></line><line x1="22.666666666666664" y1="0" x2="22.666666666666664" y2="178" fill="rgb(0, 0, 0)" stroke="rgb(60, 60, 60)" stroke-width="1px" opacity="0.25"></line><line x1="45.33333333333333" y1="0" x2="45.33333333333333" y2="178" fill="rgb(0, 0, 0)" stroke="rgb(60, 60, 60)" stroke-width="1px" opacity="0.25"></line><line x1="68" y1="0" x2="68" y2="178" fill="rgb(0, 0, 0)" stroke="rgb(60, 60, 60)" stroke-width="1px" opacity="0.25"></line><line x1="90.66666666666666" y1="0" x2="90.66666666666666" y2="178" fill="rgb(0, 0, 0)" stroke="rgb(60, 60, 60)" stroke-width="1px" opacity="0.25"></line><line x1="113.33333333333334" y1="0" x2="113.33333333333334" y2="178" fill="rgb(0, 0, 0)" stroke="rgb(60, 60, 60)" stroke-width="1px" opacity="0.25"></line><line x1="136" y1="0" x2="136" y2="178" fill="rgb(0, 0, 0)" stroke="rgb(60, 60, 60)" stroke-width="1px" opacity="0.25"></line><line x1="158.66666666666669" y1="0" x2="158.66666666666669" y2="178" fill="rgb(0, 0, 0)" stroke="rgb(60, 60, 60)" stroke-width="1px" opacity="0.25"></line><line x1="181.33333333333331" y1="0" x2="181.33333333333331" y2="178" fill="rgb(0, 0, 0)" stroke="rgb(60, 60, 60)" stroke-width="1px" opacity="0.25"></line><line x1="204" y1="0" x2="204" y2="178" fill="rgb(0, 0, 0)" stroke="rgb(60, 60, 60)" stroke-width="1px" opacity="0.25"></line><line x1="226.66666666666669" y1="0" x2="226.66666666666669" y2="178" fill="rgb(0, 0, 0)" stroke="rgb(60, 60, 60)" stroke-width="1px" opacity="0.25"></line><line x1="249.33333333333331" y1="0" x2="249.33333333333331" y2="178" fill="rgb(0, 0, 0)" stroke="rgb(60, 60, 60)" stroke-width="1px" opacity="0.25"></line><line x1="272" y1="0" x2="272" y2="178" fill="rgb(0, 0, 0)" stroke="rgb(60, 60, 60)" stroke-width="1px" opacity="0.25"></line></g><g><line x1="0" y1="178" x2="272" y2="178" fill="rgb(0, 0, 0)" stroke="rgb(60, 60, 60)" stroke-width="1px" opacity="0.25"></line><line x1="0" y1="161.8181818181818" x2="272" y2="161.8181818181818" fill="rgb(0, 0, 0)" stroke="rgb(60, 60, 60)" stroke-width="1px" opacity="0.25"></line><line x1="0" y1="145.63636363636363" x2="272" y2="145.63636363636363" fill="rgb(0, 0, 0)" stroke="rgb(60, 60, 60)" stroke-width="1px" opacity="0.25"></line><line x1="0" y1="129.45454545454544" x2="272" y2="129.45454545454544" fill="rgb(0, 0, 0)" stroke="rgb(60, 60, 60)" stroke-width="1px" opacity="0.25"></line><line x1="0" y1="113.27272727272727" x2="272" y2="113.27272727272727" fill="rgb(0, 0, 0)" stroke="rgb(60, 60, 60)" stroke-width="1px" opacity="0.25"></line><line x1="0" y1="97.0909090909091" x2="272" y2="97.0909090909091" fill="rgb(0, 0, 0)" stroke="rgb(60, 60, 60)" stroke-width="1px" opacity="0.25"></line><line x1="0" y1="80.90909090909092" x2="272" y2="80.90909090909092" fill="rgb(0, 0, 0)" stroke="rgb(60, 60, 60)" stroke-width="1px" opacity="0.25"></line><line x1="0" y1="64.72727272727275" x2="272" y2="64.72727272727275" fill="rgb(0, 0, 0)" stroke="rgb(60, 60, 60)" stroke-width="1px" opacity="0.25"></line><line x1="0" y1="48.54545454545456" x2="272" y2="48.54545454545456" fill="rgb(0, 0, 0)" stroke="rgb(60, 60, 60)" stroke-width="1px" opacity="0.25"></line><line x1="0" y1="32.363636363636374" x2="272" y2="32.363636363636374" fill="rgb(0, 0, 0)" stroke="rgb(60, 60, 60)" stroke-width="1px" opacity="0.25"></line><line x1="0" y1="16.181818181818187" x2="272" y2="16.181818181818187" fill="rgb(0, 0, 0)" stroke="rgb(60, 60, 60)" stroke-width="1px" opacity="0.25"></line><line x1="0" y1="0" x2="272" y2="0" fill="rgb(0, 0, 0)" stroke="rgb(60, 60, 60)" stroke-width="1px" opacity="0.25"></line></g></g></g><g><g><line x1="0" y1="161.8181818181818" x2="272" y2="161.8181818181818" fill="rgb(0, 0, 0)" stroke="rgb(153, 153, 153)" stroke-width="1.5px"></line></g></g><g><g><line x1="22.666666666666664" y1="0" x2="22.666666666666664" y2="178" fill="rgb(0, 0, 0)" stroke="rgb(153, 153, 153)" stroke-width="1.5px"></line></g></g><g><g><g><g><g><path stroke="rgb(0, 119, 187)" stroke-width="2px" d="M22.666666666666664,59.44747491316362L45.33333333333333,112.99332216400866L68,129.99888975062058L90.66666666666666,138.3630888019028L113.33333333333334,143.02513076999432L136,145.5627269274553L158.66666666666669,147.21005191273414L181.33333333333331,148.0513039568625L204,148.7531397627115L226.66666666666669,149.284980983937L249.10666666666668,149.8112380334957" style="fill: none;" fill="none"></path></g><g><path stroke="rgb(255, 112, 67)" stroke-width="2px" d="M22.666666666666664,30.457479953765898L22.893333333333334,51.20515320358872L23.12,69.16521691276844L23.346666666666668,81.66563588132455L23.573333333333334,90.33041523787045L23.799999999999997,98.69679820550238L24.026666666666667,104.82864606462434L24.253333333333334,112.21445593942589L24.48,112.56502860565043L24.706666666666667,116.23354681132815L24.93333333333333,118.97644828020529L25.16,113.84429124948723L25.386666666666667,119.08642481318057L25.613333333333333,124.01807921788316L25.84,126.75250938173096L26.06666666666667,124.33491682293496L26.293333333333333,126.6725451155342L26.52,133.11776242917674L26.746666666666666,136.68899508516085L26.973333333333333,135.45781054819685L27.200000000000003,140.07043315262848L27.426666666666666,142.98652119440297L27.653333333333332,137.61986921363953L27.88,136.68162111551476L28.106666666666666,138.57433253864366L28.333333333333336,132.6034035544208L28.56,130.15212164155662L28.78666666666667,135.90617131571412L29.013333333333335,137.12340708462145L29.24,136.76299712330461L29.46666666666667,134.97927709932225L29.69333333333333,142.58215896298123L29.92,146.3777506481313L30.14666666666667,146.56820122774138L30.37333333333333,146.04003269505418L30.6,149.03915091317612L30.826666666666664,143.86355234922013L31.053333333333335,136.70912355737707L31.28,136.2734422784476L31.506666666666664,135.90911806094465L31.733333333333334,134.68546878460972L31.959999999999997,132.92430776589782L32.18666666666667,136.06831269340375L32.413333333333334,139.23729577031418L32.64,139.52417354832264L32.86666666666667,139.8944045568682L33.093333333333334,142.9696258659174L33.32,139.57375187349697L33.54666666666667,144.67162292027353L33.77333333333333,146.08894826858986L34,140.6754710497387L34.22666666666667,141.04410809131105L34.45333333333333,145.27837276247942L34.68,148.52761615660359L34.906666666666666,143.55724766770643L35.13333333333334,144.00688549174106L35.36,143.42191288223526L35.586666666666666,145.47776909840195L35.81333333333333,144.2131093523319L36.04,146.2431521922334L36.266666666666666,142.79107153765466L36.49333333333333,143.1132437529656L36.72,143.6598387044798L36.946666666666665,142.94138489286104L37.17333333333333,145.34273905740022L37.400000000000006,145.5425260736958L37.626666666666665,148.61485848955414L37.85333333333333,144.62910464422785L38.080000000000005,145.75607257298455L38.306666666666665,140.81801699516458L38.53333333333333,141.7661602217541L38.76,140.83406731432845L38.98666666666667,133.4265966081487L39.21333333333333,128.5082446514339L39.44,130.04424240406797L39.66666666666667,135.64391931730478L39.89333333333333,132.75600317307016L40.12,131.68264257366698L40.34666666666667,141.07014393259038L40.57333333333334,147.08191526404312L40.8,139.57159582434386L41.02666666666667,140.45937799184645L41.25333333333334,144.15861886612208L41.48,137.08180221686052L41.70666666666666,141.62444325558073L41.93333333333334,142.84571999134764L42.16,143.73173907403637L42.38666666666666,144.88420359643908L42.61333333333334,140.86972782779952L42.84,142.7304384969243L43.06666666666666,135.38685375551532L43.29333333333334,138.627255220277L43.52,136.34625159221352L43.74666666666666,144.56653504441343L43.97333333333333,144.44906235429082L44.2,147.25703290386L44.42666666666666,139.39104220834082L44.65333333333333,142.2983764768821L44.88,140.85203397788683L45.10666666666667,143.41285917557798L45.33333333333333,144.4154207384324L45.56,146.51033486076975L45.78666666666667,149.77312312808226L46.01333333333333,150.25864163397546L46.24,150.92806788863558L46.46666666666667,151.6621164170168L46.693333333333335,147.81160273531938L46.919999999999995,147.85356045024673L47.14666666666667,146.48994343012194L47.373333333333335,149.07459791024763L47.599999999999994,147.21544590803762L47.82666666666667,141.44114484904048L48.053333333333335,145.29933073045197L48.28,146.4118767928108L48.50666666666667,149.16736988136134L48.733333333333334,148.744200100432L48.96,147.8622452557279L49.18666666666667,150.2640173155658L49.413333333333334,145.5099731981179L49.64,144.9899777400755L49.86666666666666,146.1990136390576L50.093333333333334,148.24897372103212L50.32,148.06694159045924L50.54666666666667,147.46406678325567L50.77333333333333,146.5454968660929L51,140.11938122656122L51.22666666666667,143.7011473185646L51.45333333333333,144.93636862234013L51.68,145.18077552331604L51.906666666666666,145.09922803409532L52.13333333333334,148.95027955286864L52.36,147.4283485663877L52.586666666666666,141.35323893912778L52.81333333333333,137.86335601825417L53.04,137.82549696675738L53.266666666666666,145.05476685113578L53.49333333333333,142.63969765421427L53.72,145.00560803757415L53.946666666666665,146.4071609955425L54.17333333333333,146.626659678814L54.400000000000006,140.64533102749306L54.626666666666665,135.87247160846806L54.85333333333333,141.56888684506163L55.080000000000005,139.09769407837805L55.306666666666665,141.94429309112633L55.53333333333333,139.47220467695308L55.76,138.0070096056083L55.98666666666667,133.86081156828442L56.21333333333333,136.66960760097197L56.44,140.23573305616543L56.66666666666667,142.133047001466L56.89333333333333,144.58745429032905L57.12,147.1548259773281L57.34666666666667,146.8380865060016L57.57333333333334,147.63441222695366L57.8,145.40016532393827L58.02666666666667,141.22435221039626L58.25333333333334,138.91137542900128L58.48,140.98916962414614L58.70666666666666,144.30615591782058L58.93333333333334,144.8984922608399L59.16,143.98787747272513L59.38666666666666,141.19651034376147L59.61333333333334,142.26896381291203L59.84,145.1323237522547L60.06666666666666,147.6443236284841L60.29333333333334,149.9654493774168L60.52,153.1774965640209L60.74666666666666,144.3176526752003L60.97333333333333,147.7650159084249L61.2,149.81299558186205L61.42666666666666,149.86538416824675L61.65333333333333,147.23984362322975L61.88,150.9565376929326L62.10666666666667,153.26373578137915L62.33333333333333,152.223358503556L62.56,150.69609285654334L62.78666666666667,147.18699971183452L63.01333333333333,145.79464154043188L63.24,145.66955707967543L63.46666666666667,148.57839567095195L63.693333333333335,144.80394685239344L63.919999999999995,148.97406665355936L64.14666666666668,148.01678962132243L64.37333333333333,148.772788133456L64.6,147.28582606980007L64.82666666666667,150.5873949279233L65.05333333333333,145.72489777513437L65.28,149.10831845658333L65.50666666666667,150.89603106857294L65.73333333333333,152.193897655371L65.96,148.48442841889874L66.18666666666667,143.24010847415175L66.41333333333334,145.8184932971208L66.64,147.8484810692121L66.86666666666666,149.5886096447997L67.09333333333333,150.25079844281578L67.32,149.73639072566593L67.54666666666667,135.758051887403L67.77333333333334,136.32752775418317L68,137.96093934350927L68.22666666666667,131.52833166758126L68.45333333333333,133.52659376471465L68.68,140.73372127204507L68.90666666666667,146.48281740571073L69.13333333333333,143.58484340967095L69.36,149.63406795807788L69.58666666666667,148.34323398269217L69.81333333333333,148.43755297146492L70.04,150.71482662864796L70.26666666666668,150.62483186824932L70.49333333333333,151.73687691923797L70.72,153.1014801421685L70.94666666666666,151.12871315736504L71.17333333333333,147.91883728926877L71.4,150.4371210269018L71.62666666666667,151.06257845785782L71.85333333333332,151.32658058245045L72.08,150.57564062728815L72.30666666666666,149.9774159429592L72.53333333333333,142.09620675176254L72.76,145.49767403339132L72.98666666666666,143.1918683694526L73.21333333333334,145.63427193911807L73.44,144.6429686983429L73.66666666666666,145.1020917768957L73.89333333333333,144.1501456157214L74.12,148.1867484331829L74.34666666666666,148.87351387252102L74.57333333333334,147.9100039148593L74.80000000000001,152.24982695537423L75.02666666666666,148.55628289911084L75.25333333333333,151.15018998467292L75.48,151.7821108517758L75.70666666666666,148.25389012582187L75.93333333333334,150.8985760822324L76.16000000000001,149.82567903423282L76.38666666666667,147.43239619024547L76.61333333333333,148.31757285927125L76.83999999999999,152.23088685250195L77.06666666666666,152.965827805809L77.29333333333334,152.92751786668387L77.52,146.25306008298702L77.74666666666667,151.52138313046586L77.97333333333334,150.28926974701733L78.19999999999999,152.6248386916984L78.42666666666666,153.84477975725798L78.65333333333334,152.8196348695569L78.88,149.03938050271L79.10666666666667,152.40800333586276L79.33333333333334,151.81260509991606L79.56,151.65206522996925L79.78666666666666,149.29225000660438L80.01333333333334,147.62284479459043L80.24,146.7410213739414L80.46666666666667,145.98082378721338L80.69333333333334,146.58774021363033L80.92,144.39812821032345L81.14666666666668,145.18700583562426L81.37333333333333,150.72215492090058L81.6,148.90159742578064L81.82666666666667,145.12026305107992L82.05333333333334,148.06441766324912L82.28,146.77439632734166L82.50666666666667,145.48909876429374L82.73333333333332,148.43745013280412L82.96,149.5070321673011L83.18666666666667,150.23665510859726L83.41333333333333,151.51289979248784L83.64,150.44855145687256L83.86666666666667,149.94374848504162L84.09333333333333,151.6588057092507L84.32,152.1122063218849L84.54666666666667,150.0052263056468L84.77333333333333,146.86615429930532L85,149.47163954487004L85.22666666666667,152.2907861987188L85.45333333333333,154.6996646263064L85.68,156.397684090136L85.90666666666667,154.43441305495176L86.13333333333333,154.84045706342914L86.36,152.1889704971714L86.58666666666667,153.1829013458745L86.81333333333333,150.33543254261616L87.04,151.59391752013946L87.26666666666668,154.01736802321972L87.49333333333333,154.327194701096L87.72,153.18013547846482L87.94666666666666,154.9776298148581L88.17333333333333,150.309317367247L88.4,142.81010839775928L88.62666666666667,145.992768874065L88.85333333333332,139.4449718249959L89.08,146.28836627644472L89.30666666666666,151.03488934102302L89.53333333333333,150.04040651143052L89.76,149.6755100735536L89.98666666666666,153.2824638082865L90.21333333333334,151.64965266146987L90.44,152.36147770574073L90.66666666666666,154.4206495802055L90.89333333333333,153.71149657778957L91.12,149.98672404083388L91.34666666666666,148.9013063561737L91.57333333333334,144.6900024022022L91.80000000000001,141.6907774564742L92.02666666666666,145.66573118462594L92.25333333333333,141.74276062807797L92.48,142.79611949796987L92.70666666666666,148.5927070062473L92.93333333333334,145.0365592095066L93.16000000000001,150.26995455883292L93.38666666666667,151.32657328154133L93.61333333333333,150.89924750052882L93.83999999999999,151.30316705079855L94.06666666666666,152.34097354534163L94.29333333333334,152.20082757046941L94.52,154.626594674921L94.74666666666667,149.69973953340403L94.97333333333334,152.48345536810598L95.19999999999999,153.07044541888098L95.42666666666666,151.28063069654155L95.65333333333334,138.02413238803427L95.88,133.96506239359547L96.10666666666667,142.36623859213842L96.33333333333334,148.15446340327168L96.56,147.2081065948973L96.78666666666666,145.29546051936654L97.01333333333334,149.32794261798733L97.24,152.67983614458566L97.46666666666667,144.13044261862223L97.69333333333334,141.34091262633504L97.92,146.71001010925445L98.14666666666668,147.37024977730005L98.37333333333333,142.37394192384778L98.6,143.1505042231684L98.82666666666667,149.0883940503214L99.05333333333334,146.25595692538369L99.28,150.2301660825661L99.50666666666667,152.20948066296313L99.73333333333332,151.3927104932229L99.96,152.27574868552657L100.18666666666667,151.89503105071896L100.41333333333333,153.8461860423689L100.64,151.79515125055568L100.86666666666667,154.2816876897125L101.09333333333333,144.15948062378413L101.32,148.7497778756088L101.54666666666667,150.98050584387695L101.77333333333333,153.99036221633648L102,153.1550952022814L102.22666666666667,151.40026442431073L102.45333333333333,150.4031136310457L102.68,150.21934239781308L102.90666666666667,152.48050417739103L103.13333333333333,149.76181413323172L103.36,152.12160747586353L103.58666666666667,149.56245298205914L103.81333333333333,149.92231945674735L104.04,153.22304786982647L104.26666666666668,148.1883778243675L104.49333333333333,146.71132386161875L104.72,148.00296117705685L104.94666666666666,151.9550610149491L105.17333333333333,151.02543196366136L105.4,148.59031585423546L105.62666666666667,150.76711053962316L105.85333333333332,154.53454313437857L106.08,152.65225806282697L106.30666666666666,153.38049477305017L106.53333333333333,149.94182110421073L106.76,149.04626986845997L106.98666666666666,137.87429201913315L107.21333333333334,139.70357313670553L107.44,147.369845610531L107.66666666666666,145.77375421501497L107.89333333333333,143.87834178322544L108.12,143.98169956688028L108.34666666666666,146.58669287873164L108.57333333333334,148.68643996575753L108.80000000000001,148.33703203997317L109.02666666666666,150.80144147057095L109.25333333333333,152.34829719888802L109.48,150.4677365517426L109.70666666666666,152.03554212253894L109.93333333333334,148.98212682292197L110.16000000000001,151.8993174463676L110.38666666666667,146.9149296723164L110.61333333333333,149.79018600658097L110.83999999999999,147.71398963760885L111.06666666666666,150.80582003691558L111.29333333333334,152.16207472158553L111.52,147.765423494535L111.74666666666667,149.19198702980196L111.97333333333334,148.53812408788707L112.19999999999999,143.0121146617734L112.42666666666666,144.69881872439692L112.65333333333334,150.27622307509887L112.88,148.76761798242086L113.10666666666667,149.1662041414021L113.33333333333334,151.79226532958097L113.56,151.74193765205553L113.78666666666666,153.8425318917211L114.01333333333334,152.49106683879847L114.24,149.1387124895648L114.46666666666667,151.034042210186L114.69333333333334,147.8507291410448L114.92,149.66009432465194L115.14666666666668,153.5951418150732L115.37333333333333,152.3371845656747L115.6,152.49702380009836L115.82666666666667,152.31954058591185L116.05333333333334,150.3237837491402L116.28,149.45828381895004L116.50666666666667,142.23471193556435L116.73333333333332,146.31170818640658L116.96,138.89053123564037L117.18666666666667,143.2982226601207L117.41333333333333,141.0547609579107L117.64,144.8631041933891L117.86666666666667,145.54090130085368L118.09333333333333,150.3513441182493L118.32,153.10972531133288L118.54666666666667,152.98944083338137L118.77333333333333,154.2318012332058L119,156.02938776677442L119.22666666666667,151.02869116992727L119.45333333333333,149.16294986587195L119.68,149.20140248503677L119.90666666666667,148.0735765424812L120.13333333333333,147.81378865728502L120.36,151.58163057126123L120.58666666666667,152.2799651477742L120.81333333333333,148.21111973520442L121.04,151.3127529600527L121.26666666666668,150.13373613595297L121.49333333333333,145.77508672494977L121.72,144.04019414297767L121.94666666666666,148.12179588150778L122.17333333333333,151.36626716024068L122.4,149.30513684659837L122.62666666666667,150.2083504531881L122.85333333333332,149.37658767128454L123.08,149.99893387447437L123.30666666666666,152.31774540830804L123.53333333333333,152.8333255736618L123.76,153.57922608559912L123.98666666666666,156.14834092778514L124.21333333333334,152.6208162778072L124.44,153.48615074853592L124.66666666666666,153.25814511036563L124.89333333333333,150.59055435976992L125.12,153.2989189568726L125.34666666666666,151.9242153309143L125.57333333333334,154.77889214531098L125.80000000000001,155.21195549466162L126.02666666666666,150.75611243389255L126.25333333333333,153.68640080057048L126.48,152.75040449925416L126.70666666666666,151.1138831306178L126.93333333333334,151.3417213259231L127.16000000000001,147.8341148015945L127.38666666666667,152.0423609568522L127.61333333333333,151.27017387105408L127.83999999999999,153.39237330289353L128.06666666666666,153.49871324475836L128.29333333333335,152.17801748256053L128.51999999999998,153.4322605647681L128.74666666666667,149.46363733258823L128.97333333333333,148.42504566023092L129.2,149.37681292090454L129.42666666666668,152.12482225570577L129.65333333333334,153.81230480744415L129.88,151.89440761241767L130.10666666666665,153.94997189294668L130.33333333333334,156.48203147701668L130.56,151.9174626699369L130.78666666666666,152.93781206887022L131.01333333333335,155.2158773449339L131.24,155.7190008377766L131.46666666666667,147.31503790219207L131.69333333333333,146.73197039712426L131.92,150.10076186380678L132.14666666666668,147.645847849442L132.37333333333333,137.6847349875102L132.6,142.64099251507173L132.82666666666668,147.75881449365673L133.05333333333334,148.89341478785596L133.28,149.26462179323136L133.50666666666666,151.01605677886664L133.73333333333332,145.31330092641915L133.96,143.9354653407717L134.18666666666667,148.39219461677055L134.41333333333333,148.90389722510372L134.64,141.11131820539515L134.86666666666667,148.00842811543396L135.09333333333333,148.9795056777137L135.32,151.50996255028423L135.54666666666668,154.60110943099102L135.77333333333334,151.39091638006468L136,152.67967499991875L136.22666666666666,150.79746869128707L136.45333333333335,152.33072345131103L136.67999999999998,146.81250713904655L136.90666666666667,145.25483807927822L137.13333333333333,147.1207427005545L137.36,149.4073242221748L137.58666666666667,150.26287615723854L137.81333333333333,152.74051180460825L138.04,154.4574926355446L138.26666666666665,147.20780933840248L138.49333333333334,147.7637548970871L138.72,147.68603721892012L138.9466666666667,148.95418268648456L139.17333333333335,151.74254865581656L139.39999999999998,153.7718925152768L139.62666666666667,156.0783567427136L139.85333333333332,150.04938542554268L140.08,152.14935865338566L140.30666666666667,151.3557480028024L140.53333333333336,152.44343996633458L140.76,154.21287161094958L140.98666666666665,155.3150034841807L141.21333333333334,153.36201953679347L141.44,149.8672609746833L141.66666666666669,149.24773006491472L141.89333333333332,149.97336586884873L142.12,152.50753951552542L142.34666666666666,154.72394072418535L142.57333333333332,155.20898180009706L142.8,153.73150025425988L143.02666666666667,154.66344371217536L143.25333333333333,155.97210397793177L143.48,155.24030202930643L143.70666666666665,156.66350588270313L143.93333333333334,151.16720913181447L144.16,148.265487550973L144.38666666666668,148.91482962149425L144.61333333333332,152.93656415053428L144.84,148.8927011824785L145.06666666666666,143.49465114730742L145.29333333333335,149.77201672671677L145.52,152.72306564560586L145.74666666666667,149.56583396534754L145.97333333333333,152.54466896183737L146.2,152.1399821131207L146.42666666666668,154.63976082400168L146.65333333333334,155.1996936238099L146.88,152.8323928368807L147.10666666666668,148.79340382856958L147.33333333333331,150.2311933763L147.56,152.1104051228081L147.78666666666666,152.76345897192022L148.01333333333335,153.72717124414464L148.24,152.8920090071932L148.46666666666664,152.91974313446272L148.69333333333333,152.4919444043442L148.92,154.62811858228946L149.14666666666668,147.14016065865124L149.37333333333333,149.92857908095885L149.60000000000002,153.58411447667712L149.82666666666665,139.60649010878637L150.0533333333333,147.5064608486538L150.28,148.62695439404746L150.50666666666666,150.59948849370542L150.73333333333335,150.51802750980704L150.96,153.95995336299643L151.18666666666667,155.37645647719347L151.41333333333333,154.32406847105025L151.64,154.34098676260012L151.86666666666667,156.0751096581115L152.09333333333333,155.29891181674319L152.32000000000002,156.41072486535379L152.54666666666665,155.78493552449225L152.77333333333334,155.16424110640045L153,153.07963997528367L153.22666666666666,149.53423753942997L153.45333333333335,148.38889496147019L153.67999999999998,151.64467835155608L153.90666666666667,153.7231248315612L154.13333333333333,154.9273291251389L154.36,153.67847721878815L154.58666666666667,153.11029594597818L154.81333333333333,152.7715110642545L155.04,154.27980803545995L155.26666666666665,151.7901901003944L155.49333333333334,154.90458848636212L155.72,153.43798868289014L155.9466666666667,155.77777275492255L156.17333333333335,154.74030721263898L156.39999999999998,153.55693779787129L156.62666666666667,139.82933333473613L156.85333333333332,146.77968085305986L157.08,148.50146146942487L157.30666666666667,147.8385577068295L157.53333333333336,152.82869565891318L157.76,150.61191060098935L157.98666666666665,151.1314245418569L158.21333333333334,154.1625550621858L158.44,148.19293415231033L158.66666666666669,141.32915540881186L158.89333333333332,147.26580118129738L159.12,149.43155459353557L159.34666666666666,148.3640980424616L159.57333333333332,143.78132697767433L159.8,148.76550111634506L160.02666666666667,150.6168291804736L160.25333333333333,151.61270135238283L160.48,152.2194514182906L160.70666666666665,148.7612330047768L160.93333333333334,153.19076785346135L161.16,153.02243732233796L161.38666666666668,153.20269217184398L161.61333333333332,154.08896356575772L161.84,155.39535623482163L162.06666666666666,153.72478620523546L162.29333333333335,150.0130001999432L162.52,150.48641741446073L162.74666666666667,153.32744428748651L162.97333333333333,146.98768814836575L163.2,152.60517079917545L163.42666666666668,153.8159601247866L163.65333333333334,145.61417140638008L163.88,146.31574484874557L164.10666666666668,148.48442416235602L164.33333333333331,148.02650065850884L164.56,151.9481490147574L164.78666666666666,155.05901795363064L165.01333333333335,151.00664601256588L165.24,150.13018595256946L165.46666666666664,150.41722665945403L165.69333333333333,151.9688696616776L165.92,155.14098109429452L166.14666666666668,154.15713083253272L166.37333333333333,149.5381955639171L166.60000000000002,151.1376444600867L166.82666666666665,152.1672290408469L167.0533333333333,149.68588195106634L167.28,151.37462057683115L167.50666666666666,146.98544774396925L167.73333333333335,149.67064708322525L167.96,152.04358271348315L168.18666666666667,152.53726706618193L168.41333333333333,146.79359711016832L168.64,148.0886092537728L168.86666666666667,147.81542937794114L169.09333333333333,145.20724717088711L169.32000000000002,151.32172058718012L169.54666666666665,152.95050897509282L169.77333333333334,153.38181211358972L170,152.34009144212285L170.22666666666666,151.50841965723225L170.45333333333335,151.8047730807349L170.67999999999998,144.5269747628789L170.90666666666667,145.46348420574668L171.13333333333333,149.86945544204457L171.36,151.04468839264334L171.58666666666667,150.50120766961294L171.81333333333333,152.83795848726396L172.04,153.21547545481914L172.26666666666665,150.30786130705187L172.49333333333334,152.54460725553244L172.72,154.01363363394967L172.9466666666667,154.79571561434233L173.17333333333335,149.36869553331024L173.39999999999998,144.67285524460902L173.62666666666667,139.1433034022667L173.85333333333332,146.2734848022233L174.08,149.6788450120078L174.30666666666667,152.4530389044905L174.53333333333336,154.00626698375928L174.76,151.46152652033538L174.98666666666665,153.17759678513715L175.21333333333334,145.58547297166814L175.44,150.06328089774024L175.66666666666669,153.4485599060545L175.89333333333332,154.55373728528016L176.12,153.23991384492373L176.34666666666666,151.60904315825985L176.57333333333332,153.4689823783051L176.8,153.5382049706109L177.02666666666667,150.98354572199176L177.25333333333333,149.58844166379046L177.48,152.9390403328207L177.70666666666665,150.09569841366593L177.93333333333334,143.24724398678146L178.16,140.35462359217902L178.38666666666668,148.0528372339264L178.61333333333332,152.27749872505663L178.84,154.38816074006854L179.06666666666666,150.79324024837558L179.29333333333335,151.2846682835144L179.52,152.30192669257323L179.74666666666667,155.4116493912581L179.97333333333333,147.60456143847L180.2,148.8942873120902L180.42666666666668,145.36336188086153L180.65333333333334,151.0340746172144L180.88,148.56965060919748L181.10666666666668,150.22161914520575L181.33333333333331,151.6587448102517L181.56,152.70619211809722L181.78666666666666,146.6411766211413L182.01333333333335,148.47965172506667L182.24,149.80537533718334L182.46666666666664,153.6215224426046L182.69333333333333,153.4646200981273L182.92,155.45561670898724L183.14666666666668,154.49558073833674L183.37333333333333,154.0077821205165L183.60000000000002,153.02691394605654L183.82666666666665,151.49868103970806L184.0533333333333,146.6208812452342L184.28,150.39293895520424L184.50666666666666,149.27555625407055L184.73333333333335,152.3671227674193L184.96,141.25536330408403L185.18666666666667,145.6362843029532L185.41333333333333,148.03694100871374L185.64,152.6874526393047L185.86666666666667,153.93659993142379L186.09333333333333,154.62021621007668L186.32000000000002,155.8503684600787L186.54666666666665,156.1583096088218L186.77333333333334,153.05357921792327L187,154.4720146552507L187.22666666666666,149.50585444485606L187.45333333333335,148.5699262429714L187.67999999999998,149.11069766003828L187.90666666666667,148.53531158989293L188.13333333333333,148.76818709590944L188.36,135.18369810359684L188.58666666666667,145.17437728504657L188.81333333333333,141.0906989460737L189.04,142.42003340560103L189.26666666666665,146.37657369504433L189.49333333333334,145.79182520669792L189.72,150.83654028762717L189.9466666666667,145.67560670382773L190.17333333333335,149.25652055936328L190.39999999999998,151.16676681892486L190.62666666666667,154.20261053128075L190.85333333333332,151.5571177768501L191.08,141.07411294905893L191.30666666666667,145.70562189362465L191.53333333333336,150.11136883393382L191.76,143.7401732312357L191.98666666666665,150.72722116315447L192.21333333333334,150.65683665739274L192.44,154.17322737786634L192.66666666666669,153.13694902437365L192.89333333333332,154.09955593172975L193.12,138.21857294593775L193.34666666666666,142.38313521993095L193.57333333333332,145.4814189706467L193.8,145.4832253502724L194.02666666666667,147.76855118915498L194.25333333333333,149.21670061504668L194.48,151.12497870544286L194.70666666666665,151.05588675670086L194.93333333333334,152.73321302770552L195.16,151.91563543664103L195.38666666666668,152.32327966855217L195.61333333333332,152.46392856983698L195.84,153.99901152950468L196.06666666666666,155.6642809420102L196.29333333333335,154.411823260009L196.52,154.85656653821653L196.74666666666667,152.39084881800878L196.97333333333333,150.75842775130698L197.2,149.5918747732502L197.42666666666668,153.86332084106522L197.65333333333334,152.7321541123754L197.88,153.60308425195643L198.10666666666668,149.30906981301663L198.33333333333331,148.44172321063394L198.56,152.75667303403048L198.78666666666666,151.36442562873265L199.01333333333335,151.4981529197517L199.24,146.37054858201626L199.46666666666664,139.57540735760966L199.69333333333333,145.345368361651L199.92,149.97882538729533L200.14666666666668,146.6706539737154L200.37333333333333,145.58936818185805L200.60000000000002,151.1720662290219L200.82666666666665,152.91409614519074L201.0533333333333,153.74046201736166L201.28,155.1349837206216L201.50666666666666,157.02011801343346L201.73333333333335,150.52452402362195L201.96,154.3576369126886L202.18666666666667,155.52075922411933L202.41333333333333,150.72188215270393L202.64,153.43779090440458L202.86666666666667,153.6266561342436L203.09333333333333,156.08517570806225L203.32000000000002,152.6232861856061L203.54666666666665,148.80608950752347L203.77333333333334,147.37191780541767L204,146.7323460037136L204.22666666666666,151.56777065785138L204.45333333333335,152.09835947983066L204.67999999999998,151.22007721417918L204.90666666666667,150.76018249297834L205.13333333333333,148.74965003219577L205.36,151.7718867588324L205.58666666666667,147.46354936089722L205.81333333333333,149.8959758756805L206.04,154.1810899733395L206.26666666666665,149.74933725631976L206.49333333333334,150.20138838515066L206.72,151.493462099234L206.9466666666667,153.00966341429458L207.17333333333335,151.20213043427168L207.39999999999998,153.90673659635263L207.62666666666667,155.26225728747784L207.85333333333332,152.26707486730106L208.08,153.11457461651355L208.30666666666667,153.4169174323386L208.53333333333336,153.8823603074079L208.76,156.4011172172973L208.98666666666665,153.10533701515334L209.21333333333334,152.98762867010862L209.44,155.0589489263744L209.66666666666669,154.20896628798707L209.89333333333332,154.96222603602774L210.12,156.32360671548582L210.34666666666666,154.54180308238196L210.57333333333332,152.7498379094235L210.8,148.00982719126623L211.02666666666667,148.27804237901796L211.25333333333333,141.0384013282695L211.48,141.56393426845165L211.70666666666665,137.82761313524247L211.93333333333334,142.02852882365113L212.16,146.76104778347693L212.38666666666668,148.41378823291856L212.61333333333332,148.4549547511962L212.84,152.05524845840145L213.06666666666666,153.74700505676248L213.29333333333335,155.8071812276131L213.52,155.83264072853706L213.74666666666667,154.84559740164775L213.97333333333333,156.36559040157636L214.2,156.42424514701594L214.42666666666668,151.37063621751253L214.65333333333334,147.49799729730864L214.88,150.0087645556378L215.10666666666668,153.75767861194444L215.33333333333331,146.08488514814033L215.56,147.577126406726L215.78666666666666,152.650268892894L216.01333333333335,155.3942931824692L216.24,151.53988213716477L216.46666666666664,153.77034817971094L216.69333333333333,153.05316865022291L216.92,148.5614303382519L217.14666666666668,150.7320574279615L217.37333333333333,151.4134157189911L217.60000000000002,149.60907900837122L217.82666666666665,153.68826257931053L218.0533333333333,153.6804201462236L218.28,155.46520855445362L218.50666666666666,150.23912120506844L218.73333333333335,145.96441086343714L218.96,145.5771503497686L219.18666666666667,142.74413761258364L219.41333333333333,144.5815882218327L219.64,148.63082284441427L219.86666666666667,151.88852931034273L220.09333333333333,151.770608992115L220.32000000000002,149.8163224438508L220.54666666666665,148.599044397729L220.77333333333334,151.18961710008958L221,152.63801035836212L221.22666666666666,147.53784946339266L221.45333333333335,152.31075502669708L221.67999999999998,150.77032814752351L221.90666666666667,152.088893747308L222.13333333333333,147.0947608030431L222.36,148.5385114867267L222.58666666666667,148.8782677084931L222.81333333333333,152.46511495320834L223.04,154.1083756026481L223.26666666666665,153.97943722002202L223.49333333333334,147.0905359678788L223.72,152.6685679000183L223.9466666666667,152.9305295057784L224.17333333333335,154.91062471094486L224.39999999999998,155.06340408330007L224.62666666666667,156.7468399654907L224.85333333333332,158.0792514350593L225.08,152.4133360338558L225.30666666666667,155.05710961535746L225.53333333333336,154.1192610639436L225.76,154.83265662674665L225.98666666666665,150.322655247152L226.21333333333334,154.4170851551325L226.44,154.91820290693914L226.66666666666669,149.68214317386744L226.89333333333332,152.6311272820749L227.12,154.95351268635335L227.34666666666666,152.03340916587447L227.57333333333332,150.23146700257618L227.8,152.27784265847637L228.02666666666667,154.43590600216976L228.25333333333333,149.71293178175003L228.48,148.29492749133638L228.70666666666665,137.58940239499907L228.93333333333334,132.93532640074713L229.16,138.84152957692726L229.38666666666668,144.0051875041612L229.61333333333332,147.4195595139794L229.84,151.0208366738496L230.06666666666666,154.27265574903404L230.29333333333335,153.7532483652829L230.52,152.6250277746994L230.74666666666667,150.55794793758395L230.97333333333333,149.70471227789994L231.2,149.3710897552152L231.42666666666668,152.17033314818525L231.65333333333334,154.23020467264027L231.88,152.9762858274549L232.10666666666668,151.02830224986556L232.33333333333331,154.9176802077473L232.56,154.67518619796178L232.78666666666666,154.41975188352183L233.01333333333335,153.28721181934827L233.24,154.31765803721058L233.46666666666664,152.32908090684242L233.69333333333333,150.54895928300277L233.92,144.5892936722812L234.14666666666668,150.6681197369418L234.37333333333333,154.0148771367843L234.60000000000002,153.84715316298627L234.82666666666665,151.4721281902488L235.0533333333333,154.87220681629037L235.28,156.9705665475581L235.50666666666666,155.4502540533519L235.73333333333335,152.6676402195473L235.96,151.91629491466608L236.18666666666667,152.31879525751935L236.41333333333333,153.7885810815986L236.64,152.60476936472566L236.86666666666667,152.4552910635526L237.09333333333333,152.71104837962181L237.32000000000002,153.98102465804186L237.54666666666665,152.8273347120267L237.77333333333334,153.79029366897095L238,149.16670069051239L238.22666666666666,148.3086541104548L238.45333333333335,150.93733605334077L238.67999999999998,151.46750269869713L238.90666666666667,154.14728977163765L239.13333333333333,150.24938558604555L239.36,151.991342421408L239.58666666666667,152.40780764270093L239.81333333333333,146.46550001945982L240.04,141.8388868926733L240.26666666666665,146.37198377680815L240.49333333333334,151.51136040038512L240.72,149.23551129529622L240.9466666666667,150.73545259185346L241.17333333333335,150.35041055166295L241.39999999999998,154.151031048565L241.62666666666667,151.12418266345549L241.85333333333332,153.34415599222902L242.08,150.82449763018158L242.30666666666667,152.97177405150723L242.53333333333336,155.77109536308635L242.76,157.54582325714964L242.98666666666665,153.66499819693087L243.21333333333334,150.47607556663158L243.44,149.59037691600165L243.66666666666669,152.21669163802045L243.89333333333332,152.69357447373162L244.12,152.582328084176L244.34666666666666,141.0140735877593L244.57333333333332,145.83071490057398L244.8,147.8764276360288L245.02666666666667,152.16808438287202L245.25333333333333,153.14149141169455L245.48,152.47513701296543L245.70666666666665,152.5357691626751L245.93333333333334,148.43833530995687L246.16,152.2570032795628L246.38666666666668,154.59598888055976L246.61333333333332,154.19347869753005L246.84,156.03018822410516L247.06666666666666,156.70331627592233L247.29333333333335,155.9670921711674L247.52,144.24885840488042L247.74666666666667,137.81230441709988L247.97333333333333,141.65535177839524L248.2,144.45483288688152L248.42666666666668,144.07176046447162L248.65333333333334,143.37025247371147L248.88,148.08433083599968L249.10666666666668,147.6016512210308" style="fill: none;" fill="none"></path></g></g></g></g><g opacity="0.2"><g><g><g><path stroke="rgb(0, 119, 187)" stroke-width="2px" d="M22.666666666666664,59.44747491316362L45.33333333333333,144.15700526400047L68,145.65632396123627L90.66666666666666,147.71310379559344L113.33333333333334,148.7715418636799L136,148.86000444943255L158.66666666666669,149.4145575843074L181.33333333333331,149.1961234537038L204,149.7174732793461L226.66666666666669,150.01981388438833L249.10666666666668,150.54070195013827" style="fill: none;" fill="none"></path></g><g><path stroke="rgb(255, 112, 67)" stroke-width="2px" d="M22.666666666666664,30.457479953765898L22.893333333333334,63.280299034985646L23.12,85.70147861133923L23.346666666666668,95.63937133008784L23.573333333333334,101.01058168844745L23.799999999999997,109.56782920794055L24.026666666666667,113.03449099714106L24.253333333333334,122.2654498165304L24.48,113.04672100327232L24.706666666666667,121.30225485021418L24.93333333333333,122.77848314155233L25.16,106.71710447831587L25.386666666666667,126.37425685470754L25.613333333333333,130.87860524654388L25.84,130.55783041498879L26.06666666666667,120.969797372818L26.293333333333333,129.9267649921504L26.52,142.09082023663956L26.746666666666666,141.66108936071396L26.973333333333333,133.7436360933564L27.200000000000003,146.49266516620463L27.426666666666666,147.04667335206813L27.653333333333332,130.14769117940557L27.88,135.37526165897197L28.106666666666666,141.20963286269796L28.333333333333336,124.28982447494161L28.56,126.73909539526159L28.78666666666667,143.91778711568224L29.013333333333335,138.81821816617793L29.24,136.26118237322027L29.46666666666667,132.49572455883026L29.69333333333333,153.1679891456257L29.92,151.66252168742093L30.14666666666667,146.83337403969333L30.37333333333333,145.30464015223762L30.6,153.21495663713324L30.826666666666664,136.65733619169757L31.053333333333335,126.74769401550293L31.28,135.66682384772736L31.506666666666664,135.40185324170375L31.733333333333334,132.98172744837674L31.959999999999997,130.47216491265732L32.18666666666667,140.44585065408188L32.413333333333334,143.64961192011833L32.64,139.92360624400052L32.86666666666667,140.40989366444674L33.093333333333334,147.2513933344321L33.32,134.8455254056237L33.54666666666667,151.76961562172934L33.77333333333333,148.062353418632L34,133.13804583116013L34.22666666666667,141.5573778477582L34.45333333333333,151.17392787879163L34.68,153.0516823177988L34.906666666666666,136.63678245110947L35.13333333333334,144.63293624195185L35.36,142.60742948813873L35.586666666666666,148.34022918885404L35.81333333333333,142.4522673135454L36.04,149.06967117027804L36.266666666666666,137.98458603295413L36.49333333333333,143.56181846423584L36.72,144.42088717764074L36.946666666666665,141.94104968146846L37.17333333333333,148.68625131520358L37.400000000000006,145.82069842652842L37.626666666666665,152.8926036235961L37.85333333333333,139.07956220886925L38.080000000000005,147.32520016756925L38.306666666666665,133.94254248250616L38.53333333333333,143.08630222623998L38.76,139.53627288341522L38.98666666666667,123.1128455292095L39.21333333333333,121.66020436720416L39.44,132.18288042328575L39.66666666666667,143.44059865583074L39.89333333333333,128.73502902009272L40.12,130.18815484913912L40.34666666666667,154.14077979597178L40.57333333333334,155.45237199826676L40.8,129.1146438772028L41.02666666666667,141.6954766078429L41.25333333333334,149.30923654274508L41.48,127.22843549468303L41.70666666666666,147.9493645104495L41.93333333333334,144.54615793444893L42.16,144.9653828685934L42.38666666666666,146.48883123289454L42.61333333333334,135.28019458055496L42.84,145.32118875872004L43.06666666666666,125.16205394809896L43.29333333333334,143.13901036977768L43.52,133.1703087416562L43.74666666666666,156.01200147785923L43.97333333333333,144.28549990057945L44.2,151.16669524799693L44.42666666666666,128.43887334520167L44.65333333333333,146.3463873483918L44.88,138.83822695775467L45.10666666666667,146.9784100489183L45.33333333333333,145.81133181398565L45.56,149.4271770119667L45.78666666666667,154.3160484189337L46.01333333333333,150.93465065414256L46.24,151.86013985086572L46.46666666666667,152.68416484648532L46.693333333333335,142.450361197645L46.919999999999995,147.91198004375804L47.14666666666667,144.59131877530706L47.373333333333335,152.67332735386762L47.599999999999994,144.62686584754425L47.82666666666667,133.4013285420158L48.053333333333335,150.67125461318275L48.28,147.9609241810712L48.50666666666667,153.00396552140063L48.733333333333334,148.1550019844012L48.96,146.6342602805658L49.18666666666667,153.60811142758888L49.413333333333334,138.89070602980527L49.64,144.26596492528915L49.86666666666666,147.88240812041542L50.093333333333334,151.1032243614847L50.32,147.8134901550683L50.54666666666667,146.6246573626995L50.77333333333333,145.26653109626338L51,131.17201447486877L51.22666666666667,148.68819962848318L51.45333333333333,146.65622220797974L51.68,145.5210741270672L51.906666666666666,144.9856858361851L52.13333333333334,154.3122699450363L52.36,145.3092963316224L52.586666666666666,132.89459347724915L52.81333333333333,133.00423673608088L53.04,137.77278412472117L53.266666666666666,155.12040099637073L53.49333333333333,139.2770893465389L53.72,148.2997703416781L53.946666666666665,148.35860554467547L54.17333333333333,146.9322774626992L54.400000000000006,132.3172609914433L54.626666666666665,129.22700705853376L54.85333333333333,149.50025925582105L55.080000000000005,135.65694242715836L55.306666666666665,145.90773956342179L55.53333333333333,136.03020597587934L55.76,135.9669533100995L55.98666666666667,128.08787554502487L56.21333333333333,140.5804193019867L56.44,145.20100821148264L56.66666666666667,144.7747616334395L56.89333333333333,148.0048347738656L57.12,150.72949181903493L57.34666666666667,146.39707604592496L57.57333333333334,148.74317196282473L57.8,142.2893239422278L58.02666666666667,135.4101817987182L58.25333333333334,135.69091493433172L58.48,143.88217493891716L58.70666666666666,148.92454353245822L58.93333333333334,145.7232285087759L59.16,142.7199879830534L59.38666666666666,137.30996568094602L59.61333333333334,143.76218849962407L59.84,149.1191072084687L60.06666666666666,151.14189283414322L60.29333333333334,153.19725604219872L60.52,157.64977279034528L60.74666666666666,131.98169778693807L60.97333333333333,152.5649331374602L61.2,152.66448881138456L61.42666666666666,149.93832712823695L61.65333333333333,143.5841866921295L61.88,156.13145623017442L62.10666666666667,156.47615034471858L62.33333333333333,150.77479492534292L62.56,148.5696129365401L62.78666666666667,142.30113318020648L63.01333333333333,143.85599930178034L63.24,145.49539641900498L63.46666666666667,152.62850107794458L63.693333333333335,139.5486138083718L63.919999999999995,154.78031001307747L64.14666666666668,146.68393021280116L64.37333333333333,149.82539850202474L64.6,145.2154626223174L64.82666666666667,155.18431616100398L65.05333333333333,138.95462661981583L65.28,153.81920562549072L65.50666666666667,153.3851428871805L65.73333333333333,154.00097505612808L65.96,143.31956933845174L66.18666666666667,135.9382084553892L66.41333333333334,149.40849321809682L66.64,150.67492337389427L66.86666666666666,152.01146809214896L67.09333333333333,151.1727933721109L67.32,149.0201579711654L67.54666666666667,116.2953887202523L67.77333333333334,137.12043434381485L68,140.235210982236L68.22666666666667,122.57192576473409L68.45333333333333,136.30886300043628L68.68,150.76852560043335L68.90666666666667,154.4875397736376L69.13333333333333,139.54986526207492L69.36,158.05667247284543L69.58666666666667,146.54594839973885L69.81333333333333,148.5688774965026L70.04,153.8855760747736L70.26666666666668,150.49952815879476L70.49333333333333,153.28522672707385L70.72,155.0014779310335L70.94666666666666,148.3819419010119L71.17333333333333,143.44958428632128L71.4,153.94343953241003L71.62666666666667,151.93343067033726L71.85333333333332,151.6941624879837L72.08,149.53007351268423L72.30666666666666,149.14448109540072L72.53333333333333,131.122848499905L72.76,150.23368828675964L72.98666666666666,139.98139254071495L73.21333333333334,149.03493911027908L73.44,143.262733085589L73.66666666666666,145.74134926904333L73.89333333333333,142.82470861619169L74.12,153.807090155103L74.34666666666666,149.82972795313054L74.57333333333334,146.5684661269188L74.80000000000001,158.29235568642616L75.02666666666666,143.41359715570104L75.25333333333333,154.7618022425608L75.48,152.66196239400995L75.70666666666666,143.34139141169462L75.93333333333334,154.5808900215409L76.16000000000001,148.33183673295107L76.38666666666667,144.1001219912009L76.61333333333333,149.55004372379997L76.83999999999999,157.67956805838782L77.06666666666666,153.9891187982126L77.29333333333334,152.87417723373935L77.52,136.95991551334208L77.74666666666667,158.85670373724267L77.97333333333334,148.57374345714396L78.19999999999999,155.8767552606084L78.42666666666666,155.5433579872955L78.65333333333334,151.39228002591568L78.88,143.77596413547343L79.10666666666667,157.09828680211848L79.33333333333334,150.98360564221036L79.56,151.42853842540222L79.78666666666666,146.00657426498154L80.01333333333334,145.29845763336527L80.24,145.5132193863392L80.46666666666667,144.922366860238L80.69333333333334,147.43277696045962L80.92,141.34943398562345L81.14666666666668,146.28539525649765L81.37333333333333,158.42898929322308L81.6,146.366754214872L81.82666666666667,139.8553429408507L82.05333333333334,152.16369513760912L82.28,144.97824221849442L82.50666666666667,143.69952177459544L82.73333333333332,152.54257093776357L82.96,150.996258827773L83.18666666666667,151.25254159623927L83.41333333333333,153.28987205570394L83.64,148.96661190824076L83.86666666666667,149.24088884483683L84.09333333333333,154.0467561984604L84.32,152.74349617009813L84.54666666666667,147.07158427346837L84.77333333333333,142.49548466368157L85,153.09937259013003L85.22666666666667,156.21600953015414L85.45333333333333,158.05365325036374L85.68,158.76191214742985L85.90666666666667,151.70086343180049L86.13333333333333,155.40581020441923L86.36,148.49718776616183L86.58666666666667,154.56679549406874L86.81333333333333,146.37077502228996L87.04,153.34616215391594L87.26666666666668,157.39164599640804L87.49333333333333,154.75858017124912L87.72,151.5830338814042L87.94666666666666,157.48036116361618L88.17333333333333,143.80941821770236L88.4,132.36862605268306L88.62666666666667,150.42412867600268L88.85333333333332,130.3281826322729L89.08,155.8167288858782L89.30666666666666,157.64368461275643L89.53333333333333,148.65574381568214L89.76,149.167448526079L89.98666666666666,158.30458599396727L90.21333333333334,149.37621704556724L90.44,153.3525833893906L90.66666666666666,157.28772620924494L90.89333333333333,152.72411129691383L91.12,144.8005574941635L91.34666666666666,147.3900310153311L91.57333333333334,138.82641651413658L91.80000000000001,137.51482310620221L92.02666666666666,151.20023613626307L92.25333333333333,136.28063415939158L92.48,144.26275792447004L92.70666666666666,156.66355372829872L92.93333333333334,140.08517639203507L93.16000000000001,157.5566437772729L93.38666666666667,152.79775054617363L93.61333333333333,150.30426280065018L93.83999999999999,151.8655622140928L94.06666666666666,153.78595770760018L94.29333333333334,152.00569609349424L94.52,158.00409815528175L94.74666666666667,142.83985988660294L94.97333333333334,156.35934679345652L95.19999999999999,153.887737786228L95.42666666666666,148.78859201615506L95.65333333333334,119.56651991063899L95.88,128.3134386214343L96.10666666666667,154.06357004561207L96.33333333333334,156.2136663699692L96.56,145.89045189998367L96.78666666666666,142.63239828023043L97.01333333333334,154.94254687970334L97.24,157.34682665291157L97.46666666666667,132.22674158486453L97.69333333333334,137.45692589066246L97.92,154.1856434467164L98.14666666666668,148.28953084620562L98.37333333333333,135.41736017573965L98.6,144.23174646767703L98.82666666666667,157.35598227855834L99.05333333333334,142.31222867965698L99.28,155.763634334911L99.50666666666667,154.96536842801353L99.73333333333332,150.255485041575L99.96,153.50524205375802L100.18666666666667,151.36494094675237L100.41333333333333,156.56286595897242L100.64,148.93940424377269L100.86666666666667,157.7438030188734L101.09333333333333,130.06588131189346L101.32,155.1410529965704L101.54666666666667,154.08644765615463L101.77333333333333,158.18111917511985L102,151.9921157712286L102.22666666666667,148.95693544637072L102.45333333333333,149.01473621075803L102.68,149.96346953240308L102.90666666666667,155.62882033938712L103.13333333333333,145.97646100954577L103.36,155.40725275196812L103.58666666666667,145.9992283040827L103.81333333333333,150.42337756265295L104.04,157.81879891387442L104.26666666666668,141.17838268930262L104.49333333333333,144.65475590391594L104.72,149.80136528611183L104.94666666666666,157.4577454782345L105.17333333333333,149.73106806928462L105.4,145.19979533824053L105.62666666666667,153.79795864224434L105.85333333333332,159.78010717779398L106.08,150.03146880052307L106.30666666666666,154.39445114948532L106.53333333333333,145.15400274233386L106.76,147.79935403303668L106.98666666666666,122.3190501332283L107.21333333333334,142.25056263533506L107.44,158.0439379066229L107.66666666666666,143.55144514278933L107.89333333333333,141.2392747131261L108.12,144.12560920823705L108.34666666666666,150.2137409827926L108.57333333333334,151.61001126874578L108.80000000000001,147.85053583708677L109.02666666666666,154.23274838111618L109.25333333333333,154.50205326080322L109.48,147.84934828227216L109.70666666666666,154.21846758235586L109.93333333333334,144.73072083158928L110.16000000000001,155.96105175939473L110.38666666666667,139.97494478117335L110.61333333333333,153.79353334280577L110.83999999999999,144.8232090473175L111.06666666666666,155.11071308092636L111.29333333333334,154.05044846914032L111.52,141.64377035065132L111.74666666666667,151.17825491861865L111.97333333333334,147.6277216185223L112.19999999999999,135.31800584359604L112.42666666666666,147.04729184508324L112.65333333333334,158.04189133373174L112.88,146.6671199825677L113.10666666666667,149.72117338668215L113.33333333333334,155.4486471753229L113.56,151.67186418717557L113.78666666666666,156.76728272302586L114.01333333333334,150.60936190865257L114.24,144.47108035737818L114.46666666666667,153.67299411784518L114.69333333333334,143.41846070506355L114.92,152.17935398221016L115.14666666666668,159.074083536186L115.37333333333333,150.58567471124908L115.6,152.71957507864997L115.82666666666667,152.07242280922154L116.05333333333334,147.54500269889832L116.28,148.25320975347L116.50666666666667,132.17701137065887L116.73333333333332,151.98829148303378L116.96,128.55769634246826L117.18666666666667,149.43524756214836L117.41333333333333,137.93108940124512L117.64,150.16562994230878L117.86666666666667,146.48462837392634L118.09333333333333,157.04913770610636L118.32,156.9503421878273L118.54666666666667,152.82196340235797L118.77333333333333,155.961594899947L119,158.5322474857623L119.22666666666667,144.06599877910182L119.45333333333333,146.56519522721118L119.68,149.2549417777495L119.90666666666667,146.50325429710475L120.13333333333333,147.452074424787L120.36,156.82776452804154L120.58666666666667,153.25228745287114L120.81333333333333,142.54588521339676L121.04,155.63129491426727L121.26666666666668,148.49213854833084L121.49333333333333,139.70634520053864L121.72,141.62462600252846L121.94666666666666,153.80479160357606L122.17333333333333,155.8836888928305L122.4,146.43533339554614L122.62666666666667,151.46593494848773L122.85333333333332,148.2184873385863L123.08,150.86545418609273L123.30666666666666,155.5463298884305L123.53333333333333,153.55119077996773L123.76,154.6177765591578L123.98666666666666,159.725433842025L124.21333333333334,147.70928674123505L124.44,154.69099443744528L124.66666666666666,152.94068271463567L124.89333333333333,146.87634905630892L125.12,157.06989550116387L125.34666666666666,150.01015430146998L125.57333333333334,158.75358570028436L125.80000000000001,155.81492886624554L126.02666666666666,144.55204386602747L126.25333333333333,157.76637168431824L126.48,151.44717519933528L126.70666666666666,148.8352816077796L126.93333333333334,151.6589505835013L127.16000000000001,142.95031815767288L127.38666666666667,157.90168933570385L127.61333333333333,150.19502343101937L127.83999999999999,156.34720600464127L128.06666666666666,153.64677507768977L128.29333333333335,150.33915400505066L128.51999999999998,155.17859901894224L128.74666666666667,143.9379466121847L128.97333333333333,146.97896825996312L129.2,150.7020008293065L129.42666666666668,155.95099793239075L129.65333333333334,156.16186185316607L129.88,149.22403400594538L130.10666666666665,156.81202550842005L130.33333333333334,160.00753070651132L130.56,145.56201040744781L130.78666666666666,154.3584899401123L131.01333333333335,158.3877289972522L131.24,156.4195220646533L131.46666666666667,135.6138263507323L131.69333333333333,145.92013956470925L131.92,154.7912801260298L132.14666666666668,144.22776182944125L132.37333333333333,123.81543430415067L132.6,149.54181041229856L132.82666666666668,154.8845857652751L133.05333333333334,150.47316926446828L133.28,149.78146982463923L133.50666666666666,153.45465764403343L133.73333333333332,137.37310019406405L133.96,142.01704354448754L134.18666666666667,154.5974971015345L134.41333333333333,149.61636353622782L134.64,130.26136368513107L134.86666666666667,157.61158114807174L135.09333333333333,150.33158017830416L135.32,155.03323025324127L135.54666666666668,158.90505078164014L135.77333333333334,146.9212217493491L136,154.474070973017L136.22666666666666,148.1767890941013L136.45333333333335,154.46554227986118L136.67999999999998,139.1292490200563L136.90666666666667,143.08602613481608L137.13333333333333,149.7187247330492L137.36,152.59103342213413L137.58666666666667,151.4540991864421L137.81333333333333,156.1902341653L138.04,156.84812144799668L138.26666666666665,137.11375269022855L138.49333333333334,148.537822636691L138.72,147.57782743735748L138.9466666666667,150.719878050414L139.17333333333335,155.6249146705324L139.39999999999998,156.5974382717501L139.62666666666667,159.28974951871416L139.85333333333332,141.65498038584536L140.08,155.07324482229623L140.30666666666667,150.25076858021995L140.53333333333336,153.9578818868507L140.76,156.6765300252221L140.98666666666665,156.8495507335121L141.21333333333334,150.64279308373278L141.44,145.00135312026197L141.66666666666669,148.38512961160052L141.89333333333332,150.98370088772342L142.12,156.035982248458L142.34666666666666,157.80993475155398L142.57333333333332,155.8843260732564L142.8,151.67433695359665L143.02666666666667,155.96103005788544L143.25333333333333,157.79420989819548L143.48,154.22138161279938L143.70666666666665,158.64509593695402L143.93333333333334,143.51447059349582L144.16,144.225291474299L144.38666666666668,149.81893748044968L144.61333333333332,158.5362040928819L144.84,143.2622508298267L145.06666666666666,135.97870588302612L145.29333333333335,158.51227215067908L145.52,156.83194236999208L145.74666666666667,145.16987980766731L145.97333333333333,156.6922334784811L146.2,151.57651860605586L146.42666666666668,158.12031395733356L146.65333333333334,155.97931297665292L146.88,149.53629461201754L147.10666666666668,143.16973970694977L147.33333333333331,152.2330917418003L147.56,154.72691525789824L147.78666666666666,153.67273490537298L148.01333333333335,155.06899072365326L148.24,151.7291754619642L148.46666666666664,152.9583585939624L148.69333333333333,151.8963011963801L148.92,157.60240894488314L149.14666666666668,136.71434364535594L149.37333333333333,153.81101812828672L149.60000000000002,158.6738790707155L149.82666666666665,120.14482173052701L150.0533333333333,158.50594163956967L150.28,150.18706741658124L150.50666666666666,153.34593549370766L150.73333333333335,150.40460575710642L150.96,158.75229988585818L151.18666666666667,157.34871679408985L151.41333333333333,152.85878182134846L151.64,154.3645428527485L151.86666666666667,158.4896061298522L152.09333333333333,154.21817702325907L152.32000000000002,157.95875164595518L152.54666666666665,154.91362117908218L152.77333333333334,154.30002064867455L153,150.17715706066653L153.22666666666666,144.59781596606427L153.45333333333335,146.79418352517214L153.67999999999998,156.17785044014454L153.90666666666667,156.6170383515683L154.13333333333333,156.6039963472973L154.36,151.93964513865384L154.58666666666667,152.31919187713754L154.81333333333333,152.29980579831383L155.04,156.3798770240762L155.26666666666665,148.3237842673605L155.49333333333334,159.24090394242245L155.72,151.3959765163335L155.9466666666667,159.03555823320693L156.17333333333335,153.29579777338287L156.39999999999998,151.9092799045823L156.62666666666667,120.71577879515561L156.85333333333332,156.4569589766589L157.08,150.89877323670822L157.30666666666667,146.91556730053642L157.53333333333336,159.77668677880007L157.76,147.52538212321022L157.98666666666665,151.8547669188543L158.21333333333334,158.3829329636964L158.44,139.88116532564163L158.66666666666669,131.77241084250537L158.89333333333332,155.53165725686333L159.12,152.44702944024044L159.34666666666666,146.87783078713852L159.57333333333332,137.40053090182218L159.8,155.70518855344164L160.02666666666667,153.19451562382957L160.25333333333333,152.99929849126121L160.48,153.06425653398037L160.70666666666665,143.9462016251954L160.93333333333334,159.3582063269886L161.16,152.78806323354894L161.38666666666668,153.45366901972076L161.61333333333332,155.3229586644606L161.84,157.21430487930775L162.06666666666666,151.3987772166729L162.29333333333335,144.84491537917745L162.52,151.145577268167L162.74666666666667,157.28313242169943L162.97333333333333,138.1605635718866L163.2,160.42664185843685L163.42666666666668,155.50179598006335L163.65333333333334,134.1944560137662L163.88,147.29257677089083L164.10666666666668,151.50397287173706L164.33333333333331,147.38891338760203L164.56,157.40843452513218L164.78666666666666,159.39041920344937L165.01333333333335,145.36434823816472L165.24,148.90985161066055L165.46666666666664,150.81688620827416L165.69333333333333,154.12929125807503L165.92,159.55765299329704L166.14666666666668,152.78727233409882L166.37333333333333,143.10704645785418L166.60000000000002,153.36462832987309L166.82666666666665,153.60076546669006L167.0533333333333,146.23099198395556L167.28,153.72592651031235L167.50666666666666,140.87420710108498L167.73333333333335,153.40936960821801L167.96,155.34752658144993L168.18666666666667,153.22464575821704L168.41333333333333,138.7964298508384L168.64,149.89171228625557L168.86666666666667,147.43506888096982L169.09333333333333,141.57575902613726L169.32000000000002,159.83517400412399L169.54666666666665,155.21834352477032L169.77333333333334,153.9823346652768L170,150.88965739716184L170.22666666666666,150.3504460237243L170.45333333333335,152.21739913929594L170.67999999999998,134.3937723203139L170.90666666666667,146.7674279754812L171.13333333333333,156.00408524952152L171.36,152.68101752481678L171.58666666666667,149.7444952753457L171.81333333333333,156.09152063050053L172.04,153.74110912734812L172.26666666666665,146.25946074724197L172.49333333333334,155.65892816944557L172.72,156.05902442877942L172.9466666666667,155.8846431564201L173.17333333333335,141.812413985079L173.39999999999998,138.1346278569915L173.62666666666667,131.4442623203451L173.85333333333332,156.2011536413973L174.08,154.4202795624733L174.30666666666667,156.31567250598562L174.53333333333336,156.1688955534588L174.76,147.91837113824758L174.98666666666665,155.56695777584207L175.21333333333334,135.01462115482852L175.44,156.29793212495068L175.66666666666669,158.16203450614756L175.89333333333332,156.09252492812547L176.12,151.41061900691554L176.34666666666666,149.33830933137375L176.57333333333332,156.0586585172198L176.8,153.63458666611803L177.02666666666667,147.42657997391441L177.25333333333333,147.64597620476377L177.48,157.60422795333645L177.70666666666665,146.13678693771362L177.93333333333334,133.71183614839208L178.16,136.32709950208664L178.38666666666668,158.77140263942155L178.61333333333332,158.15968290648678L178.84,157.32692938297987L179.06666666666666,145.78787248242986L179.29333333333335,151.9689054042101L179.52,153.7183008410714L179.74666666666667,159.7414546798576L179.97333333333333,136.7344054850665L180.2,150.69003003564748L180.42666666666668,140.44709728522736L180.65333333333334,158.92966029318896L180.88,145.13832340186292L181.10666666666668,152.5217284465378L181.33333333333331,153.6597188223492L181.56,154.16459961370987L181.78666666666666,138.1965856660496L182.01333333333335,151.0394424200058L182.24,151.65123931386253L182.46666666666664,158.93491386689922L182.69333333333333,153.24615798213264L182.92,158.2277698848735L183.14666666666668,153.15887993709606L183.37333333333333,153.32859839905393L183.60000000000002,151.66120754046875L183.82666666666665,149.37085436149079L184.0533333333333,139.82930354096672L184.28,155.64494275233963L184.50666666666666,147.7197745984251L184.73333333333335,156.67164839126846L184.96,125.78396615656939L185.18666666666667,151.73603555018252L185.41333333333333,151.37948216362435L185.64,159.16256691921842L185.86666666666667,155.6758432903073L186.09333333333333,155.57204557413405L186.32000000000002,157.5631641765887L186.54666666666665,156.5870697728612L186.77333333333334,148.73072494160044L187,156.4469654316252L187.22666666666666,142.59124860167503L187.45333333333335,147.26679176092148L187.67999999999998,149.86363776705483L187.90666666666667,147.73417596112597L188.13333333333333,149.09243002533913L188.36,116.26940960233861L188.58666666666667,159.08484447070143L188.81333333333333,135.40481188080528L189.04,144.27092492580414L189.26666666666665,151.8854407966137L189.49333333333334,144.97765386646444L189.72,157.86052157255736L189.9466666666667,138.48980922590601L190.17333333333335,154.2423862625252L190.39999999999998,153.82648768750104L190.62666666666667,158.42955081977627L190.85333333333332,147.8736804967577L191.08,126.4781588586894L191.30666666666667,152.15427788821134L191.53333333333336,156.24568634412506L191.76,134.86927409063688L191.98666666666665,160.45559890568256L192.21333333333334,150.55883717807856L192.44,159.0692546489564L192.66666666666669,151.69409256089818L192.89333333333332,155.43983636254615L193.12,116.10677366906947L193.34666666666666,148.18164058706978L193.57333333333332,149.79529730298302L193.8,145.48574045300484L194.02666666666667,150.95051204616374L194.25333333333333,151.23302349990064L194.48,153.78195920451122L194.70666666666665,150.959686962041L194.93333333333334,155.06862903183156L195.16,150.77728577635506L195.38666666666668,152.8908608718352L195.61333333333332,152.65976029363546L195.84,156.1363758417693L196.06666666666666,157.98290964554656L196.29333333333335,152.66797069798815L196.52,155.4758023944768L196.74666666666667,148.95772031762382L196.97333333333333,148.4855352613059L197.2,147.96763115308502L197.42666666666668,159.81064527041534L197.65333333333334,151.15718034180728L197.88,154.8157190396027L198.10666666666668,143.33032243631104L198.33333333333331,147.23407794128764L198.56,158.76456967808983L198.78666666666666,149.42593761465767L199.01333333333335,151.68434737758204L199.24,139.23115689646113L199.46666666666664,130.1142298633402L199.69333333333333,153.37914181703871L199.92,156.43019378185272L200.14666666666668,142.06453970887443L200.37333333333333,144.08384585922414L200.60000000000002,158.9451051367955L200.82666666666665,155.3396019136364L201.0533333333333,154.89104799248955L201.28,157.07663834095L201.50666666666666,159.64487437328154L201.73333333333335,141.4804194732146L201.96,159.69465055248955L202.18666666666667,157.1402261744846L202.41333333333333,144.04019206762314L202.64,157.21927151083946L202.86666666666667,153.8896215977994L203.09333333333333,159.50828190892935L203.32000000000002,147.80314335768873L203.54666666666665,143.49123671650887L203.77333333333334,145.37505672736603L204,145.8418417247859L204.22666666666666,158.3003475686366L204.45333333333335,152.83712190660563L204.67999999999998,149.99720573425293L204.90666666666667,150.11985060843554L205.13333333333333,145.9502962231636L205.36,155.9798814356327L205.58666666666667,141.46485949104482L205.81333333333333,153.28275154937398L206.04,160.147445008836L206.26666666666665,143.57881074601954L206.49333333333334,150.83079928701574L206.72,153.2924738255414L206.9466666666667,155.12073797258464L207.17333333333335,148.68542183529246L207.39999999999998,157.67248010432178L207.62666666666667,157.14960906315935L207.85333333333332,148.09674910523674L208.08,154.2945862290534L208.30666666666667,153.83788278834385L208.53333333333336,154.53041713346136L208.76,159.90809454159304L208.98666666666665,148.51647558537397L209.21333333333334,152.82373810356313L209.44,157.94294028796932L209.66666666666669,153.02549763836643L209.89333333333332,156.01102310148153L210.12,158.21911761367863L210.34666666666666,152.0609185980125L210.57333333333332,150.2548050609502L210.8,141.41009934923866L211.02666666666667,148.6514903198589L211.25333333333333,130.95832694660535L211.48,142.29565716602585L211.70666666666665,132.6253669641235L211.93333333333334,147.8776506673206L212.16,153.35034451701424L212.38666666666668,150.71497230367228L212.61333333333332,148.51227272640574L212.84,157.06809759140015L213.06666666666666,156.10251304778185L213.29333333333335,158.67565618319946L213.52,155.86808912456036L213.74666666666667,153.47129305655307L213.97333333333333,158.4819442914291L214.2,156.5059127590873L214.42666666666668,144.3342716314576L214.65333333333334,142.10594980554148L214.88,153.50461753254586L215.10666666666668,158.977458470247L215.33333333333331,135.40171338753268L215.56,149.65484031222084L215.78666666666666,159.71383091908965L216.01333333333335,159.214920303361L216.24,146.17321412671697L216.46666666666664,156.87592530115086L216.69333333333333,152.05460767854345L216.92,142.30738321488553L217.14666666666668,153.7543181126768L217.37333333333333,152.36210118640554L217.60000000000002,147.09682071750814L217.82666666666665,159.3678913790394L218.0533333333333,153.66950077766722L218.28,157.9502488740466L218.50666666666666,142.96260724013501L218.73333333333335,140.0125414404002L218.96,145.0379503044215L219.18666666666667,138.7996079163118L219.41333333333333,147.1399524672465L219.64,154.26875239068812L219.86666666666667,156.42437898299912L220.09333333333333,151.60642328587446L220.32000000000002,147.09528232162648L220.54666666666665,146.9041740081527L220.77333333333334,154.7965867478739L221,154.65467274188995L221.22666666666666,140.43666850436819L221.45333333333335,158.95628382536498L221.67999999999998,148.62552325833929L221.90666666666667,153.9247913049026L222.13333333333333,140.1412072777748L222.36,150.54870980707082L222.58666666666667,149.3513254143975L222.81333333333333,157.45924197814682L223.04,156.39636052603072L223.26666666666665,153.79991057244214L223.49333333333334,137.49881221489474L223.72,160.43510996821252L223.9466666666667,153.2952703061429L224.17333333333335,157.66759937459773L224.39999999999998,155.27612560174683L224.62666666666667,159.09076265313408L224.85333333333332,159.93442721326244L225.08,144.5244299010797L225.30666666666667,158.73815321448174L225.53333333333336,152.81345279379326L225.76,155.82594901323318L225.98666666666665,144.0431796420704L226.21333333333334,160.11794210834938L226.44,155.61593145132065L226.66666666666669,142.39174421538007L226.89333333333332,156.73712907867L227.12,158.1870732253248L227.34666666666666,147.96761909669095L227.57333333333332,147.72254274650055L227.8,155.12710254300725L228.02666666666667,157.44067362425002L228.25333333333333,143.13692461360586L228.48,146.32057701999491L228.70666666666665,122.6836234331131L228.93333333333334,126.4552492987026L229.16,147.06499907103452L229.38666666666668,151.19477820667353L229.61333333333332,152.17354159463537L229.84,156.035055111755L230.06666666666666,158.80030814558268L230.29333333333335,153.03005435250023L230.52,151.05415604331276L230.74666666666667,147.67986070026052L230.97333333333333,148.5167143019763L231.2,148.9065722714771L231.42666666666668,156.0678442838517L231.65333333333334,157.09825545549393L231.88,151.23039882291448L232.10666666666668,148.316038034179L232.33333333333331,160.33303420652044L232.56,154.33755099773407L232.78666666666666,154.06409932131118L233.01333333333335,151.710325892676L233.24,155.75239415873182L233.46666666666664,149.5602964813059L233.69333333333333,148.07041673497721L233.92,136.29138605161148L234.14666666666668,159.13193975998598L234.37333333333333,158.67471638728273L234.60000000000002,153.6136236109517L234.82666666666665,148.16527523777702L235.0533333333333,159.60628758269277L235.28,159.89220617339015L235.50666666666666,153.3334553173997L235.73333333333335,148.7932831590826L235.96,150.87016341361132L236.18666666666667,152.8792143951763L236.41333333333333,155.8350292864171L236.64,150.95649563453415L236.86666666666667,152.24716577340257L237.09333333333333,153.06715067137372L237.32000000000002,155.7492691413923L237.54666666666665,151.22100086374718L237.77333333333334,155.1310642740943L238,142.7290664477782L238.22666666666666,147.11395767602053L238.45333333333335,154.59736689247868L238.67999999999998,152.20567731017417L238.90666666666667,157.87847655740651L239.13333333333333,144.82216014103457L239.36,154.41674643619496L239.58666666666667,152.9876707020131L239.81333333333333,138.19176069714806L240.04,135.3970475630327L240.26666666666665,152.68361628055573L240.49333333333334,158.66714316335592L240.72,146.0667453164404L240.9466666666667,152.82388760284945L241.17333333333335,149.814299385656L241.39999999999998,159.44280408492142L241.62666666666667,146.90976696935567L241.85333333333332,156.43512364138257L242.08,147.31626517393372L242.30666666666667,155.96152256158265L242.53333333333336,159.6687149882994L242.76,160.0168558751995L242.98666666666665,148.26155277815732L243.21333333333334,146.03599668903786L243.44,148.35717927325857L243.66666666666669,155.8734264902093L243.89333333333332,153.35755966603756L244.12,152.42743478579956L244.34666666666666,124.90707809274846L244.57333333333332,152.53713892942125L244.8,150.72476450692523L245.02666666666667,158.1435490399599L245.25333333333333,154.49680933220822L245.48,151.5473421324383L245.70666666666665,152.6201900027015L245.93333333333334,142.73329583081332L246.16,157.57390461523426L246.38666666666668,157.85266261209142L246.61333333333332,153.63304585895756L246.84,158.58752062713558L247.06666666666666,157.64054241505536L247.29333333333335,154.94201458990574L247.52,127.9330400987105L247.74666666666667,128.85040388865906L247.97333333333333,147.0061976259405L248.2,148.35267500443894L248.42666666666668,143.53839168494397L248.65333333333334,142.3935116827488L248.88,154.64795190502298L249.10666666666668,146.92959491502154" style="fill: none;" fill="none"></path></g></g></g></g></g></g><g transform="translate(58, 178)" clip-path="url(#clip_1)"><clipPath id="clip_1"><rect width="272" height="22"></rect></clipPath><g><g><line x1="0" y1="0" x2="0" y2="5" style="visibility: inherit;" fill="rgb(0, 0, 0)" stroke="rgb(204, 204, 204)" stroke-width="1px"></line><line x1="22.666666666666664" y1="0" x2="22.666666666666664" y2="5" style="visibility: inherit;" fill="rgb(0, 0, 0)" stroke="rgb(204, 204, 204)" stroke-width="1px"></line><line x1="45.33333333333333" y1="0" x2="45.33333333333333" y2="5" style="visibility: inherit;" fill="rgb(0, 0, 0)" stroke="rgb(204, 204, 204)" stroke-width="1px"></line><line x1="68" y1="0" x2="68" y2="5" style="visibility: inherit;" fill="rgb(0, 0, 0)" stroke="rgb(204, 204, 204)" stroke-width="1px"></line><line x1="90.66666666666666" y1="0" x2="90.66666666666666" y2="5" style="visibility: inherit;" fill="rgb(0, 0, 0)" stroke="rgb(204, 204, 204)" stroke-width="1px"></line><line x1="113.33333333333334" y1="0" x2="113.33333333333334" y2="5" style="visibility: inherit;" fill="rgb(0, 0, 0)" stroke="rgb(204, 204, 204)" stroke-width="1px"></line><line x1="136" y1="0" x2="136" y2="5" style="visibility: inherit;" fill="rgb(0, 0, 0)" stroke="rgb(204, 204, 204)" stroke-width="1px"></line><line x1="158.66666666666669" y1="0" x2="158.66666666666669" y2="5" style="visibility: inherit;" fill="rgb(0, 0, 0)" stroke="rgb(204, 204, 204)" stroke-width="1px"></line><line x1="181.33333333333331" y1="0" x2="181.33333333333331" y2="5" style="visibility: inherit;" fill="rgb(0, 0, 0)" stroke="rgb(204, 204, 204)" stroke-width="1px"></line><line x1="204" y1="0" x2="204" y2="5" style="visibility: inherit;" fill="rgb(0, 0, 0)" stroke="rgb(204, 204, 204)" stroke-width="1px"></line><line x1="226.66666666666669" y1="0" x2="226.66666666666669" y2="5" style="visibility: inherit;" fill="rgb(0, 0, 0)" stroke="rgb(204, 204, 204)" stroke-width="1px"></line><line x1="249.33333333333331" y1="0" x2="249.33333333333331" y2="5" style="visibility: inherit;" fill="rgb(0, 0, 0)" stroke="rgb(204, 204, 204)" stroke-width="1px"></line><line x1="272" y1="0" x2="272" y2="5" style="visibility: inherit;" fill="rgb(0, 0, 0)" stroke="rgb(204, 204, 204)" stroke-width="1px"></line></g><g transform="translate(0, 8)"><text x="0" y="0" dx="0em" dy="0.95em" style="text-anchor: middle; visibility: hidden; font-family: &quot;Helvetica Neue&quot;, sans-serif; font-size: 12px; font-weight: 200;" fill="rgb(50, 49, 63)" stroke="none" stroke-width="1px">-100</text><text x="22.666666666666664" y="0" dx="0em" dy="0.95em" style="text-anchor: middle; visibility: inherit; font-family: &quot;Helvetica Neue&quot;, sans-serif; font-size: 12px; font-weight: 200;" fill="rgb(50, 49, 63)" stroke="none" stroke-width="1px">0</text><text x="45.33333333333333" y="0" dx="0em" dy="0.95em" style="text-anchor: middle; visibility: hidden; font-family: &quot;Helvetica Neue&quot;, sans-serif; font-size: 12px; font-weight: 200;" fill="rgb(50, 49, 63)" stroke="none" stroke-width="1px">100</text><text x="68" y="0" dx="0em" dy="0.95em" style="text-anchor: middle; visibility: inherit; font-family: &quot;Helvetica Neue&quot;, sans-serif; font-size: 12px; font-weight: 200;" fill="rgb(50, 49, 63)" stroke="none" stroke-width="1px">200</text><text x="90.66666666666666" y="0" dx="0em" dy="0.95em" style="text-anchor: middle; visibility: hidden; font-family: &quot;Helvetica Neue&quot;, sans-serif; font-size: 12px; font-weight: 200;" fill="rgb(50, 49, 63)" stroke="none" stroke-width="1px">300</text><text x="113.33333333333334" y="0" dx="0em" dy="0.95em" style="text-anchor: middle; visibility: inherit; font-family: &quot;Helvetica Neue&quot;, sans-serif; font-size: 12px; font-weight: 200;" fill="rgb(50, 49, 63)" stroke="none" stroke-width="1px">400</text><text x="136" y="0" dx="0em" dy="0.95em" style="text-anchor: middle; visibility: hidden; font-family: &quot;Helvetica Neue&quot;, sans-serif; font-size: 12px; font-weight: 200;" fill="rgb(50, 49, 63)" stroke="none" stroke-width="1px">500</text><text x="158.66666666666669" y="0" dx="0em" dy="0.95em" style="text-anchor: middle; visibility: inherit; font-family: &quot;Helvetica Neue&quot;, sans-serif; font-size: 12px; font-weight: 200;" fill="rgb(50, 49, 63)" stroke="none" stroke-width="1px">600</text><text x="181.33333333333331" y="0" dx="0em" dy="0.95em" style="text-anchor: middle; visibility: hidden; font-family: &quot;Helvetica Neue&quot;, sans-serif; font-size: 12px; font-weight: 200;" fill="rgb(50, 49, 63)" stroke="none" stroke-width="1px">700</text><text x="204" y="0" dx="0em" dy="0.95em" style="text-anchor: middle; visibility: inherit; font-family: &quot;Helvetica Neue&quot;, sans-serif; font-size: 12px; font-weight: 200;" fill="rgb(50, 49, 63)" stroke="none" stroke-width="1px">800</text><text x="226.66666666666669" y="0" dx="0em" dy="0.95em" style="text-anchor: middle; visibility: hidden; font-family: &quot;Helvetica Neue&quot;, sans-serif; font-size: 12px; font-weight: 200;" fill="rgb(50, 49, 63)" stroke="none" stroke-width="1px">900</text><text x="249.33333333333331" y="0" dx="0em" dy="0.95em" style="text-anchor: middle; visibility: inherit; font-family: &quot;Helvetica Neue&quot;, sans-serif; font-size: 12px; font-weight: 200;" fill="rgb(50, 49, 63)" stroke="none" stroke-width="1px">1k</text><text x="272" y="0" dx="0em" dy="0.95em" style="text-anchor: middle; visibility: hidden; font-family: &quot;Helvetica Neue&quot;, sans-serif; font-size: 12px; font-weight: 200;" fill="rgb(50, 49, 63)" stroke="none" stroke-width="1px">1.1k</text></g><line x1="0" y1="0" x2="272" y2="0" fill="rgb(0, 0, 0)" stroke="rgb(204, 204, 204)" stroke-width="1px"></line></g></g></g></g></svg>